<?xml version="1.0" encoding="UTF-8"?><svg xmlns="http://www.w3.org/2000/svg" xmlns:xlink="http://www.w3.org/1999/xlink" fill-opacity="1" color-rendering="auto" color-interpolation="auto" text-rendering="auto" stroke="black" stroke-linecap="square" width="597" stroke-miterlimit="10" shape-rendering="auto" stroke-opacity="1" fill="black" stroke-dasharray="none" font-weight="normal" stroke-width="1" height="652" font-family="'Dialog'" font-style="normal" stroke-linejoin="miter" font-size="12px" stroke-dashoffset="0" image-rendering="auto">
  <!--Generated by ySVG 2.5-->
  <defs id="genericDefs"/>
  <g>
    <defs id="defs1">
      <clipPath clipPathUnits="userSpaceOnUse" id="clipPath1">
        <path d="M0 0 L597 0 L597 652 L0 652 L0 0 Z"/>
      </clipPath>
      <clipPath clipPathUnits="userSpaceOnUse" id="clipPath2">
        <path d="M178 1047 L775 1047 L775 1699 L178 1699 L178 1047 Z"/>
      </clipPath>
      <clipPath clipPathUnits="userSpaceOnUse" id="clipPath3">
        <path d="M173 1042 L770 1042 L770 1694 L173 1694 L173 1042 Z"/>
      </clipPath>
    </defs>
    <g fill="white" text-rendering="geometricPrecision" shape-rendering="geometricPrecision" transform="translate(-178,-1047)" stroke="white">
      <rect x="178" width="597" height="652" y="1047" clip-path="url(#clipPath2)" stroke="none"/>
    </g>
    <g fill="rgb(229,229,229)" text-rendering="geometricPrecision" shape-rendering="geometricPrecision" transform="matrix(1,0,0,1,-178,-1047) translate(5,5)" stroke="rgb(229,229,229)">
      <rect x="213.0502" y="1117.5705" clip-path="url(#clipPath3)" width="171" rx="4" ry="4" height="86" stroke="none"/>
    </g>
    <g fill="rgb(183,201,227)" text-rendering="geometricPrecision" shape-rendering="geometricPrecision" transform="matrix(1,0,0,1,-178,-1047)" stroke="rgb(183,201,227)">
      <rect x="213.0502" y="1117.5705" clip-path="url(#clipPath2)" width="171" rx="4" ry="4" height="86" stroke="none"/>
    </g>
    <g text-rendering="geometricPrecision" stroke-miterlimit="1.45" stroke-width="2" shape-rendering="geometricPrecision" transform="matrix(1,0,0,1,-178,-1047)" stroke-linecap="butt">
      <rect x="213.0502" y="1117.5705" clip-path="url(#clipPath2)" fill="none" width="171" rx="4" ry="4" height="86"/>
      <text x="266.2124" y="1165.2844" clip-path="url(#clipPath2)" font-family="sans-serif" stroke="none" font-weight="bold" stroke-width="1" xml:space="preserve">0 - Standby</text>
    </g>
    <g fill="rgb(229,229,229)" text-rendering="geometricPrecision" shape-rendering="geometricPrecision" transform="matrix(1,0,0,1,-178,-1047) translate(5,5)" stroke="rgb(229,229,229)">
      <rect x="599.1715" y="1114.2973" clip-path="url(#clipPath3)" width="112.2" rx="4" ry="4" height="56" stroke="none"/>
    </g>
    <g fill="rgb(183,201,227)" text-rendering="geometricPrecision" shape-rendering="geometricPrecision" transform="matrix(1,0,0,1,-178,-1047)" stroke="rgb(183,201,227)">
      <rect x="599.1715" y="1114.2973" clip-path="url(#clipPath2)" width="112.2" rx="4" ry="4" height="56" stroke="none"/>
    </g>
    <g text-rendering="geometricPrecision" stroke-miterlimit="1.45" stroke-width="2" shape-rendering="geometricPrecision" transform="matrix(1,0,0,1,-178,-1047)" stroke-linecap="butt">
      <rect x="599.1715" y="1114.2973" clip-path="url(#clipPath2)" fill="none" width="112.2" rx="4" ry="4" height="56"/>
      <text x="615.2578" y="1147.0112" clip-path="url(#clipPath2)" font-family="sans-serif" stroke="none" font-weight="bold" stroke-width="1" xml:space="preserve">1 - Start Pulse</text>
    </g>
    <g fill="rgb(183,201,227)" text-rendering="geometricPrecision" shape-rendering="geometricPrecision" transform="matrix(1,0,0,1,-178,-1047)" stroke="rgb(183,201,227)">
      <path d="M489.4675 1443.7225 L504.4675 1428.7225 L519.4675 1443.7225 L504.4675 1458.7225 Z" fill-rule="evenodd" clip-path="url(#clipPath2)" stroke="none"/>
    </g>
    <g text-rendering="geometricPrecision" stroke-miterlimit="1.45" shape-rendering="geometricPrecision" transform="matrix(1,0,0,1,-178,-1047)" stroke-linecap="butt">
      <path fill="none" d="M489.4675 1443.7225 L504.4675 1428.7225 L519.4675 1443.7225 L504.4675 1458.7225 Z" fill-rule="evenodd" clip-path="url(#clipPath2)"/>
    </g>
    <g fill="rgb(183,201,227)" text-rendering="geometricPrecision" shape-rendering="geometricPrecision" transform="matrix(1,0,0,1,-178,-1047)" stroke="rgb(183,201,227)">
      <path d="M405.9635 1510.0023 L420.9635 1495.0023 L435.9635 1510.0023 L420.9635 1525.0023 Z" fill-rule="evenodd" clip-path="url(#clipPath2)" stroke="none"/>
    </g>
    <g text-rendering="geometricPrecision" stroke-miterlimit="1.45" shape-rendering="geometricPrecision" transform="matrix(1,0,0,1,-178,-1047)" stroke-linecap="butt">
      <path fill="none" d="M405.9635 1510.0023 L420.9635 1495.0023 L435.9635 1510.0023 L420.9635 1525.0023 Z" fill-rule="evenodd" clip-path="url(#clipPath2)"/>
    </g>
    <g fill="rgb(183,201,227)" text-rendering="geometricPrecision" shape-rendering="geometricPrecision" transform="matrix(1,0,0,1,-178,-1047)" stroke="rgb(183,201,227)">
      <path d="M636.6533 1510.0023 L651.6533 1495.0023 L666.6533 1510.0023 L651.6533 1525.0023 Z" fill-rule="evenodd" clip-path="url(#clipPath2)" stroke="none"/>
    </g>
    <g text-rendering="geometricPrecision" stroke-miterlimit="1.45" shape-rendering="geometricPrecision" transform="matrix(1,0,0,1,-178,-1047)" stroke-linecap="butt">
      <path fill="none" d="M636.6533 1510.0023 L651.6533 1495.0023 L666.6533 1510.0023 L651.6533 1525.0023 Z" fill-rule="evenodd" clip-path="url(#clipPath2)"/>
    </g>
    <g fill="rgb(183,201,227)" text-rendering="geometricPrecision" shape-rendering="geometricPrecision" transform="matrix(1,0,0,1,-178,-1047)" stroke="rgb(183,201,227)">
      <path d="M483.0675 1243.6849 L498.0675 1228.6849 L513.0675 1243.6849 L498.0675 1258.6849 Z" fill-rule="evenodd" clip-path="url(#clipPath2)" stroke="none"/>
    </g>
    <g text-rendering="geometricPrecision" stroke-miterlimit="1.45" shape-rendering="geometricPrecision" transform="matrix(1,0,0,1,-178,-1047)" stroke-linecap="butt">
      <path fill="none" d="M483.0675 1243.6849 L498.0675 1228.6849 L513.0675 1243.6849 L498.0675 1258.6849 Z" fill-rule="evenodd" clip-path="url(#clipPath2)"/>
    </g>
    <g fill="rgb(209,207,203)" text-rendering="geometricPrecision" shape-rendering="geometricPrecision" transform="matrix(1,0,0,1,-178,-1047)" stroke="rgb(209,207,203)">
      <rect x="222.3212" width="519.458" height="83.5059" y="1599.7953" clip-path="url(#clipPath2)" stroke="none"/>
    </g>
    <g font-size="10px" stroke-linecap="butt" transform="matrix(1,0,0,1,-178,-1047)" text-rendering="geometricPrecision" font-family="sans-serif" shape-rendering="geometricPrecision" stroke-miterlimit="1.45">
      <text x="227.3212" xml:space="preserve" y="1614.849" clip-path="url(#clipPath2)" stroke="none">d = duration of the interval between two consecutive rising edges of the IR signal (falling at the IR receiver output); </text>
      <text x="227.3212" xml:space="preserve" y="1627.1" clip-path="url(#clipPath2)" stroke="none">bc = bitCount;</text>
      <text x="227.3212" xml:space="preserve" y="1639.351" clip-path="url(#clipPath2)" stroke="none">M0 and M1 are bit 0 and bit 1 marks:</text>
      <text x="227.3212" xml:space="preserve" y="1651.6019" clip-path="url(#clipPath2)" stroke="none">‣ M0: [d&gt;=M0min &amp;&amp; d&lt;=M0max]</text>
      <text x="227.3212" xml:space="preserve" y="1663.8529" clip-path="url(#clipPath2)" stroke="none">‣ M1: [d&gt;=M1min &amp;&amp; d&lt;=M1max]</text>
      <text x="227.3212" xml:space="preserve" y="1676.1039" clip-path="url(#clipPath2)" stroke="none">pbr(b) = push code bits to the right and set code's MSB to b.</text>
    </g>
    <g fill="rgb(229,229,229)" text-rendering="geometricPrecision" shape-rendering="geometricPrecision" transform="matrix(1,0,0,1,-178,-1047) translate(5,5)" stroke="rgb(229,229,229)">
      <rect x="412.3635" y="1289.6498" clip-path="url(#clipPath3)" width="171.408" rx="4" ry="4" height="86" stroke="none"/>
    </g>
    <g fill="rgb(183,201,227)" text-rendering="geometricPrecision" shape-rendering="geometricPrecision" transform="matrix(1,0,0,1,-178,-1047)" stroke="rgb(183,201,227)">
      <rect x="412.3635" y="1289.6498" clip-path="url(#clipPath2)" width="171.408" rx="4" ry="4" height="86" stroke="none"/>
    </g>
    <g text-rendering="geometricPrecision" stroke-miterlimit="1.45" stroke-width="2" shape-rendering="geometricPrecision" transform="matrix(1,0,0,1,-178,-1047)" stroke-linecap="butt">
      <rect x="412.3635" y="1289.6498" clip-path="url(#clipPath2)" fill="none" width="171.408" rx="4" ry="4" height="86"/>
      <text x="461.0538" y="1337.3636" clip-path="url(#clipPath2)" font-family="sans-serif" stroke="none" font-weight="bold" stroke-width="1" xml:space="preserve">2 - Receiving</text>
      <path fill="none" stroke-dasharray="6,2" d="M243.4515 1117.5671 L242.1256 1114.4604 L239.3025 1110.3314 L235.7673 1106.8444 L231.6341 1104.0924 L227.0171 1102.1682 L222.0305 1101.1648 L216.7883 1101.175 L211.6537 1102.2313 L206.9754 1104.2281 L202.8463 1107.0511 L199.3593 1110.5864 L196.6073 1114.7196 L194.6832 1119.3365 L193.6797 1124.3232 L193.69 1129.5653 L194.7463 1134.7 L196.743 1139.3783 L199.5661 1143.5073 L203.1013 1146.9944 L205.7172 1148.7361 L205.811 1148.771" stroke-width="1" clip-path="url(#clipPath2)"/>
      <path stroke-dasharray="6,2" d="M213.1508 1151.9532 L204.13 1142.5924 L204.8935 1148.3732 L200.1521 1151.7672 Z" stroke-width="1" clip-path="url(#clipPath2)" stroke="none"/>
      <text x="201.656" y="1080.5321" clip-path="url(#clipPath2)" font-family="sans-serif" stroke="none" stroke-width="1" xml:space="preserve">else / </text>
      <text x="201.656" y="1095.2333" clip-path="url(#clipPath2)" font-family="sans-serif" stroke="none" stroke-width="1" xml:space="preserve">possiblyHeld=false </text>
      <path fill="none" d="M384.0292 1138.7793 L591.149 1138.7793" stroke-width="1" clip-path="url(#clipPath2)"/>
      <path d="M599.149 1138.7793 L587.149 1133.7793 L590.149 1138.7793 L587.149 1143.7793 Z" stroke-width="1" clip-path="url(#clipPath2)" stroke="none"/>
      <text x="433.7466" y="1118.1025" clip-path="url(#clipPath2)" font-family="sans-serif" stroke="none" stroke-width="1" xml:space="preserve">[duration &gt; GapMin] / </text>
      <text x="401.5699" y="1132.8037" clip-path="url(#clipPath2)" font-family="sans-serif" stroke="none" stroke-width="1" xml:space="preserve">if(d&gt;GapMax) possiblyHeld=false </text>
      <path fill="none" stroke-dasharray="6,2" d="M655.2715 1114.2867 L655.2715 1095.3306 L654.6465 1090.9556 L652.7715 1087.8306 L649.6465 1085.9556 L645.2715 1085.3306 L352.5503 1085.3306 L348.1753 1085.9556 L345.0503 1087.8306 L343.1753 1090.9556 L342.5503 1095.3306 L342.5503 1109.55" stroke-width="1" clip-path="url(#clipPath2)"/>
      <path stroke-dasharray="6,2" d="M342.5503 1117.55 L347.5503 1105.55 L342.5503 1108.55 L337.5503 1105.55 Z" stroke-width="1" clip-path="url(#clipPath2)" stroke="none"/>
      <text x="435.6053" y="1076.1903" clip-path="url(#clipPath2)" font-family="sans-serif" stroke="none" stroke-width="1" xml:space="preserve">else (pulse duration not OK)</text>
      <path fill="none" d="M498.0675 1452.2988 L498.0675 1500.0023 L497.4425 1504.3773 L495.5675 1507.5023 L492.4425 1509.3773 L488.0675 1510.0023 L443.9852 1510.0023" stroke-width="1" clip-path="url(#clipPath2)"/>
      <path d="M435.9852 1510.0023 L447.9852 1515.0023 L444.9852 1510.0023 L447.9852 1505.0023 Z" stroke-width="1" clip-path="url(#clipPath2)" stroke="none"/>
      <text x="446.5323" y="1482.1815" clip-path="url(#clipPath2)" font-family="sans-serif" stroke="none" stroke-width="1" xml:space="preserve">[bc==32]</text>
      <path fill="none" d="M405.9367 1510.0023 L305.0947 1510.0023 L300.7197 1509.3773 L297.5947 1507.5023 L295.7197 1504.3773 L295.0947 1500.0023 L295.0947 1211.6097" stroke-width="1" clip-path="url(#clipPath2)"/>
      <path d="M295.0947 1203.6097 L290.0947 1215.6097 L295.0947 1212.6097 L300.0947 1215.6097 Z" stroke-width="1" clip-path="url(#clipPath2)" stroke="none"/>
      <text x="299.3882" y="1472.868" clip-path="url(#clipPath2)" font-family="sans-serif" stroke="none" stroke-width="1" xml:space="preserve">Cmd OK / </text>
      <text x="299.3882" y="1487.5692" clip-path="url(#clipPath2)" font-family="sans-serif" stroke="none" stroke-width="1" xml:space="preserve">Save Data,</text>
      <text x="299.3882" y="1502.2704" clip-path="url(#clipPath2)" font-family="sans-serif" stroke="none" stroke-width="1" xml:space="preserve">possiblyHeld=true</text>
      <path fill="none" stroke-dasharray="6,2" d="M420.9635 1525.0072 L420.9635 1535.0048 L420.3385 1539.3787 L418.4635 1542.5029 L415.3385 1544.3774 L410.9635 1545.0023 L274.5107 1545.0023 L270.1357 1544.3773 L267.0107 1542.5023 L265.1357 1539.3773 L264.5107 1535.0023 L264.5107 1211.6033" stroke-width="1" clip-path="url(#clipPath2)"/>
      <path stroke-dasharray="6,2" d="M264.5107 1203.6033 L259.5107 1215.6033 L264.5107 1212.6033 L269.5107 1215.6033 Z" stroke-width="1" clip-path="url(#clipPath2)" stroke="none"/>
      <text x="280.8332" y="1536.8826" clip-path="url(#clipPath2)" font-family="sans-serif" stroke="none" stroke-width="1" xml:space="preserve">else (error on Cmd)</text>
      <path fill="none" d="M510.6459 1452.5577 L510.6459 1500.0023 L511.2709 1504.3773 L513.1459 1507.5023 L516.2709 1509.3773 L520.6459 1510.0023 L628.6781 1510.0023" stroke-width="1" clip-path="url(#clipPath2)"/>
      <path d="M636.6781 1510.0023 L624.6781 1505.0023 L627.6781 1510.0023 L624.6781 1515.0023 Z" stroke-width="1" clip-path="url(#clipPath2)" stroke="none"/>
      <text x="514.5481" y="1479.3673" clip-path="url(#clipPath2)" font-family="sans-serif" stroke="none" stroke-width="1" xml:space="preserve">[protocol==NEC</text>
      <text x="514.5481" y="1494.0685" clip-path="url(#clipPath2)" font-family="sans-serif" stroke="none" stroke-width="1" xml:space="preserve">&amp;&amp; bc==16]</text>
      <path fill="none" stroke-dasharray="6,2" d="M651.6533 1525.0211 L651.6533 1564.7573 L651.0283 1569.1323 L649.1533 1572.2573 L646.0283 1574.1323 L641.6533 1574.7573 L243.4256 1574.7573 L239.0506 1574.1323 L235.9256 1572.2573 L234.0506 1569.1323 L233.4256 1564.7573 L233.4256 1211.5718" stroke-width="1" clip-path="url(#clipPath2)"/>
      <path stroke-dasharray="6,2" d="M233.4256 1203.5718 L228.4256 1215.5718 L233.4256 1212.5718 L238.4256 1215.5718 Z" stroke-width="1" clip-path="url(#clipPath2)" stroke="none"/>
      <text x="512.9027" y="1567.9573" clip-path="url(#clipPath2)" font-family="sans-serif" stroke="none" stroke-width="1" xml:space="preserve">else (error on Addr)</text>
      <path fill="none" d="M655.2715 1170.2681 L655.2715 1233.6849 L654.6465 1238.0599 L652.7715 1241.1849 L649.6465 1243.0599 L645.2715 1243.6849 L521.0925 1243.6849" stroke-width="1" clip-path="url(#clipPath2)"/>
      <path d="M513.0925 1243.6849 L525.0925 1248.6849 L522.0925 1243.6849 L525.0925 1238.6849 Z" stroke-width="1" clip-path="url(#clipPath2)" stroke="none"/>
      <text x="555.898" y="1208.7925" clip-path="url(#clipPath2)" font-family="sans-serif" stroke="none" stroke-width="1" xml:space="preserve">[possiblyHeld &amp;&amp; </text>
      <text x="555.898" y="1223.4937" clip-path="url(#clipPath2)" font-family="sans-serif" stroke="none" stroke-width="1" xml:space="preserve">duration of a </text>
      <text x="555.898" y="1238.1948" clip-path="url(#clipPath2)" font-family="sans-serif" stroke="none" stroke-width="1" xml:space="preserve">Repetition Mark]</text>
      <path fill="none" d="M498.0675 1228.7018 L498.0675 1197.9941 L497.4425 1193.6191 L495.5675 1190.4941 L492.4425 1188.6191 L488.0675 1187.9941 L392.0389 1187.9941" stroke-width="1" clip-path="url(#clipPath2)"/>
      <path d="M384.0389 1187.9941 L396.0389 1192.9941 L393.0389 1187.9941 L396.0389 1182.9941 Z" stroke-width="1" clip-path="url(#clipPath2)" stroke="none"/>
      <text x="409.2838" y="1167.9746" clip-path="url(#clipPath2)" font-family="sans-serif" stroke="none" stroke-width="1" xml:space="preserve">[repeatCount &lt; 2] /</text>
      <text x="409.2838" y="1182.6758" clip-path="url(#clipPath2)" font-family="sans-serif" stroke="none" stroke-width="1" xml:space="preserve">repeatCount++</text>
      <path fill="none" d="M483.0799 1243.6849 L372.5503 1243.6849 L368.1753 1243.0599 L365.0503 1241.1849 L363.1753 1238.0599 L362.5503 1233.6849 L362.5503 1211.5544" stroke-width="1" clip-path="url(#clipPath2)"/>
      <path d="M362.5503 1203.5544 L357.5503 1215.5544 L362.5503 1212.5544 L367.5503 1215.5544 Z" stroke-width="1" clip-path="url(#clipPath2)" stroke="none"/>
      <text x="373.275" y="1235.9717" clip-path="url(#clipPath2)" font-family="sans-serif" stroke="none" stroke-width="1" xml:space="preserve">else / keyHeld=true</text>
      <path fill="none" d="M711.3959 1142.2974 L725.8715 1142.2974 L730.2465 1142.9224 L733.3715 1144.7974 L735.2465 1147.9224 L735.8715 1152.2974 L735.8715 1305.7218 L735.2465 1310.0968 L733.3715 1313.2218 L730.2465 1315.0968 L725.8715 1315.7218 L591.7951 1315.7218" stroke-width="1" clip-path="url(#clipPath2)"/>
      <path d="M583.7951 1315.7218 L595.7951 1320.7218 L592.7951 1315.7218 L595.7951 1310.7218 Z" stroke-width="1" clip-path="url(#clipPath2)" stroke="none"/>
      <text x="605.7623" y="1281.5219" clip-path="url(#clipPath2)" font-family="sans-serif" stroke="none" stroke-width="1" xml:space="preserve">[duration of a </text>
      <text x="605.7623" y="1296.223" clip-path="url(#clipPath2)" font-family="sans-serif" stroke="none" stroke-width="1" xml:space="preserve">Leading Mark] / </text>
      <text x="605.7623" y="1310.9242" clip-path="url(#clipPath2)" font-family="sans-serif" stroke="none" stroke-width="1" xml:space="preserve">bc=0, repeatCount=0</text>
      <path fill="none" d="M666.6628 1510.0023 L725.8715 1510.0023 L730.2465 1509.3773 L733.3715 1507.5023 L735.2465 1504.3773 L735.8715 1500.0023 L735.8715 1362.6498 L735.2465 1358.2748 L733.3715 1355.1498 L730.2465 1353.2748 L725.8715 1352.6498 L591.7974 1352.6498" stroke-width="1" clip-path="url(#clipPath2)"/>
      <path d="M583.7974 1352.6498 L595.7974 1357.6498 L592.7974 1352.6498 L595.7974 1347.6498 Z" stroke-width="1" clip-path="url(#clipPath2)" stroke="none"/>
      <text x="673.6533" y="1504.4343" clip-path="url(#clipPath2)" font-family="sans-serif" stroke="none" stroke-width="1" xml:space="preserve">Addr OK</text>
      <path fill="none" d="M504.4675 1428.7137 L504.4675 1383.6191" stroke-width="1" clip-path="url(#clipPath2)"/>
      <path d="M504.4675 1375.6191 L499.4675 1387.6191 L504.4675 1384.6191 L509.4675 1387.6191 Z" stroke-width="1" clip-path="url(#clipPath2)" stroke="none"/>
      <text x="508.7779" y="1406.9" clip-path="url(#clipPath2)" font-family="sans-serif" stroke="none" stroke-width="1" xml:space="preserve">else</text>
      <path fill="none" stroke-dasharray="6,2" d="M412.3518 1332.6498 L338.3649 1332.6498 L333.9899 1332.0248 L330.8649 1330.1498 L328.9899 1327.0248 L328.3649 1322.6498 L328.3649 1211.5542" stroke-width="1" clip-path="url(#clipPath2)"/>
      <path stroke-dasharray="6,2" d="M328.3649 1203.5542 L323.3649 1215.5542 L328.3649 1212.5542 L333.3649 1215.5542 Z" stroke-width="1" clip-path="url(#clipPath2)" stroke="none"/>
      <text x="362.4453" y="1323.7035" clip-path="url(#clipPath2)" font-family="sans-serif" stroke="none" stroke-width="1" xml:space="preserve">else</text>
      <path fill="none" d="M563.7442 1375.6239 L563.7442 1433.7225 L563.1192 1438.0975 L561.2442 1441.2225 L558.1192 1443.0975 L553.7442 1443.7225 L527.4893 1443.7225" stroke-width="1" clip-path="url(#clipPath2)"/>
      <path d="M519.4893 1443.7225 L531.4893 1448.7225 L528.4893 1443.7225 L531.4893 1438.7225 Z" stroke-width="1" clip-path="url(#clipPath2)" stroke="none"/>
      <text x="569.6099" y="1397.3357" clip-path="url(#clipPath2)" font-family="sans-serif" stroke="none" stroke-width="1" xml:space="preserve">M1 /</text>
      <text x="569.6099" y="1412.0369" clip-path="url(#clipPath2)" font-family="sans-serif" stroke="none" stroke-width="1" xml:space="preserve">pbr(1)</text>
      <text x="569.6099" y="1426.738" clip-path="url(#clipPath2)" font-family="sans-serif" stroke="none" stroke-width="1" xml:space="preserve">bc++</text>
      <path fill="none" d="M432.2757 1375.6802 L432.2757 1433.7225 L432.9007 1438.0975 L434.7757 1441.2225 L437.9007 1443.0975 L442.2757 1443.7225 L481.4863 1443.7225" stroke-width="1" clip-path="url(#clipPath2)"/>
      <path d="M489.4863 1443.7225 L477.4863 1438.7225 L480.4863 1443.7225 L477.4863 1448.7225 Z" stroke-width="1" clip-path="url(#clipPath2)" stroke="none"/>
      <text x="438.3202" y="1398.3187" clip-path="url(#clipPath2)" font-family="sans-serif" stroke="none" stroke-width="1" xml:space="preserve">M0 /</text>
      <text x="438.3202" y="1413.0199" clip-path="url(#clipPath2)" font-family="sans-serif" stroke="none" stroke-width="1" xml:space="preserve">pbr(0)</text>
      <text x="438.3202" y="1427.7211" clip-path="url(#clipPath2)" font-family="sans-serif" stroke="none" stroke-width="1" xml:space="preserve">bc++</text>
    </g>
  </g>
</svg>
