<?xml version="1.0" encoding="UTF-8"?><svg xmlns="http://www.w3.org/2000/svg" xmlns:xlink="http://www.w3.org/1999/xlink" fill-opacity="1" color-rendering="auto" color-interpolation="auto" text-rendering="auto" stroke="black" stroke-linecap="square" width="712" stroke-miterlimit="10" shape-rendering="auto" stroke-opacity="1" fill="black" stroke-dasharray="none" font-weight="normal" stroke-width="1" height="580" font-family="'Dialog'" font-style="normal" stroke-linejoin="miter" font-size="12px" stroke-dashoffset="0" image-rendering="auto">
  <!--Generated by ySVG 2.5-->
  <defs id="genericDefs"/>
  <g>
    <defs id="defs1">
      <clipPath clipPathUnits="userSpaceOnUse" id="clipPath1">
        <path d="M0 0 L712 0 L712 580 L0 580 L0 0 Z"/>
      </clipPath>
      <clipPath clipPathUnits="userSpaceOnUse" id="clipPath2">
        <path d="M627 1313 L1339 1313 L1339 1893 L627 1893 L627 1313 Z"/>
      </clipPath>
      <clipPath clipPathUnits="userSpaceOnUse" id="clipPath3">
        <path d="M622 1308 L1334 1308 L1334 1888 L622 1888 L622 1308 Z"/>
      </clipPath>
    </defs>
    <g fill="white" text-rendering="geometricPrecision" shape-rendering="geometricPrecision" transform="translate(-627,-1313)" stroke="white">
      <rect x="627" width="712" height="580" y="1313" clip-path="url(#clipPath2)" stroke="none"/>
    </g>
    <g fill="rgb(229,229,229)" text-rendering="geometricPrecision" shape-rendering="geometricPrecision" transform="matrix(1,0,0,1,-627,-1313) translate(5,5)" stroke="rgb(229,229,229)">
      <rect x="642.2151" y="1488.5616" clip-path="url(#clipPath3)" width="90" rx="4" ry="4" height="110.15" stroke="none"/>
    </g>
    <g fill="rgb(183,201,227)" text-rendering="geometricPrecision" shape-rendering="geometricPrecision" transform="matrix(1,0,0,1,-627,-1313)" stroke="rgb(183,201,227)">
      <rect x="642.2151" y="1488.5616" clip-path="url(#clipPath2)" width="90" rx="4" ry="4" height="110.15" stroke="none"/>
    </g>
    <g text-rendering="geometricPrecision" stroke-miterlimit="1.45" stroke-width="2" shape-rendering="geometricPrecision" transform="matrix(1,0,0,1,-627,-1313)" stroke-linecap="butt">
      <rect x="642.2151" y="1488.5616" clip-path="url(#clipPath2)" fill="none" width="90" rx="4" ry="4" height="110.15"/>
      <text x="663.5461" y="1548.3505" clip-path="url(#clipPath2)" font-family="sans-serif" stroke="none" font-weight="bold" stroke-width="1" xml:space="preserve">Standby</text>
    </g>
    <g fill="rgb(183,201,227)" text-rendering="geometricPrecision" shape-rendering="geometricPrecision" transform="matrix(1,0,0,1,-627,-1313)" stroke="rgb(183,201,227)">
      <path d="M1112.74 1699.0205 L1127.74 1684.0205 L1142.74 1699.0205 L1127.74 1714.0205 Z" fill-rule="evenodd" clip-path="url(#clipPath2)" stroke="none"/>
    </g>
    <g text-rendering="geometricPrecision" stroke-miterlimit="1.45" shape-rendering="geometricPrecision" transform="matrix(1,0,0,1,-627,-1313)" stroke-linecap="butt">
      <path fill="none" d="M1112.74 1699.0205 L1127.74 1684.0205 L1142.74 1699.0205 L1127.74 1714.0205 Z" fill-rule="evenodd" clip-path="url(#clipPath2)"/>
    </g>
    <g fill="rgb(183,201,227)" text-rendering="geometricPrecision" shape-rendering="geometricPrecision" transform="matrix(1,0,0,1,-627,-1313)" stroke="rgb(183,201,227)">
      <path d="M953.1591 1389.7008 L968.1591 1374.7008 L983.1591 1389.7008 L968.1591 1404.7008 Z" fill-rule="evenodd" clip-path="url(#clipPath2)" stroke="none"/>
    </g>
    <g text-rendering="geometricPrecision" stroke-miterlimit="1.45" shape-rendering="geometricPrecision" transform="matrix(1,0,0,1,-627,-1313)" stroke-linecap="butt">
      <path fill="none" d="M953.1591 1389.7008 L968.1591 1374.7008 L983.1591 1389.7008 L968.1591 1404.7008 Z" fill-rule="evenodd" clip-path="url(#clipPath2)"/>
    </g>
    <g fill="rgb(183,201,227)" text-rendering="geometricPrecision" shape-rendering="geometricPrecision" transform="matrix(1,0,0,1,-627,-1313)" stroke="rgb(183,201,227)">
      <path d="M870.2866 1699.0205 L885.2866 1684.0205 L900.2866 1699.0205 L885.2866 1714.0205 Z" fill-rule="evenodd" clip-path="url(#clipPath2)" stroke="none"/>
    </g>
    <g text-rendering="geometricPrecision" stroke-miterlimit="1.45" shape-rendering="geometricPrecision" transform="matrix(1,0,0,1,-627,-1313)" stroke-linecap="butt">
      <path fill="none" d="M870.2866 1699.0205 L885.2866 1684.0205 L900.2866 1699.0205 L885.2866 1714.0205 Z" fill-rule="evenodd" clip-path="url(#clipPath2)"/>
    </g>
    <g fill="rgb(183,201,227)" text-rendering="geometricPrecision" shape-rendering="geometricPrecision" transform="matrix(1,0,0,1,-627,-1313)" stroke="rgb(183,201,227)">
      <path d="M1200.359 1389.7008 L1215.359 1374.7008 L1230.359 1389.7008 L1215.359 1404.7008 Z" fill-rule="evenodd" clip-path="url(#clipPath2)" stroke="none"/>
    </g>
    <g text-rendering="geometricPrecision" stroke-miterlimit="1.45" shape-rendering="geometricPrecision" transform="matrix(1,0,0,1,-627,-1313)" stroke-linecap="butt">
      <path fill="none" d="M1200.359 1389.7008 L1215.359 1374.7008 L1230.359 1389.7008 L1215.359 1404.7008 Z" fill-rule="evenodd" clip-path="url(#clipPath2)"/>
    </g>
    <g fill="rgb(183,201,227)" text-rendering="geometricPrecision" shape-rendering="geometricPrecision" transform="matrix(1,0,0,1,-627,-1313)" stroke="rgb(183,201,227)">
      <path d="M1076.759 1389.7008 L1091.759 1374.7008 L1106.759 1389.7008 L1091.759 1404.7008 Z" fill-rule="evenodd" clip-path="url(#clipPath2)" stroke="none"/>
    </g>
    <g text-rendering="geometricPrecision" stroke-miterlimit="1.45" shape-rendering="geometricPrecision" transform="matrix(1,0,0,1,-627,-1313)" stroke-linecap="butt">
      <path fill="none" d="M1076.759 1389.7008 L1091.759 1374.7008 L1106.759 1389.7008 L1091.759 1404.7008 Z" fill-rule="evenodd" clip-path="url(#clipPath2)"/>
    </g>
    <g fill="rgb(183,201,227)" text-rendering="geometricPrecision" shape-rendering="geometricPrecision" transform="matrix(1,0,0,1,-627,-1313)" stroke="rgb(183,201,227)">
      <path d="M996.1899 1699.0205 L1011.1899 1684.0205 L1026.1899 1699.0205 L1011.1899 1714.0205 Z" fill-rule="evenodd" clip-path="url(#clipPath2)" stroke="none"/>
    </g>
    <g text-rendering="geometricPrecision" stroke-miterlimit="1.45" shape-rendering="geometricPrecision" transform="matrix(1,0,0,1,-627,-1313)" stroke-linecap="butt">
      <path fill="none" d="M996.1899 1699.0205 L1011.1899 1684.0205 L1026.1899 1699.0205 L1011.1899 1714.0205 Z" fill-rule="evenodd" clip-path="url(#clipPath2)"/>
    </g>
    <g fill="rgb(229,229,229)" text-rendering="geometricPrecision" shape-rendering="geometricPrecision" transform="matrix(1,0,0,1,-627,-1313) translate(5,5)" stroke="rgb(229,229,229)">
      <rect x="947.55" y="1488.5616" clip-path="url(#clipPath3)" width="350.1901" rx="4" ry="4" height="110.15" stroke="none"/>
    </g>
    <g fill="rgb(183,201,227)" text-rendering="geometricPrecision" shape-rendering="geometricPrecision" transform="matrix(1,0,0,1,-627,-1313)" stroke="rgb(183,201,227)">
      <rect x="947.55" y="1488.5616" clip-path="url(#clipPath2)" width="350.1901" rx="4" ry="4" height="110.15" stroke="none"/>
    </g>
    <g text-rendering="geometricPrecision" stroke-miterlimit="1.45" stroke-width="2" shape-rendering="geometricPrecision" transform="matrix(1,0,0,1,-627,-1313)" stroke-linecap="butt">
      <rect x="947.55" y="1488.5616" clip-path="url(#clipPath2)" fill="none" width="350.1901" rx="4" ry="4" height="110.15"/>
      <text x="1094.3003" y="1548.3505" clip-path="url(#clipPath2)" font-family="sans-serif" stroke="none" font-weight="bold" stroke-width="1" xml:space="preserve">Receiving</text>
      <text x="949.9331" y="1587.4255" clip-path="url(#clipPath2)" font-family="sans-serif" stroke="none" stroke-width="1" xml:space="preserve">a</text>
      <text x="1088.4221" y="1501.8755" clip-path="url(#clipPath2)" font-family="sans-serif" stroke="none" stroke-width="1" xml:space="preserve">b</text>
      <text x="1050.5614" font-size="10px" y="1586.6399" clip-path="url(#clipPath2)" font-family="sans-serif" stroke="none" stroke-width="1" xml:space="preserve">Note: Exit(a) has priority over Exit(b)</text>
    </g>
    <g fill="rgb(183,201,227)" text-rendering="geometricPrecision" shape-rendering="geometricPrecision" transform="matrix(1,0,0,1,-627,-1313)" stroke="rgb(183,201,227)">
      <path d="M1112.74 1762.8605 L1127.74 1747.8605 L1142.74 1762.8605 L1127.74 1777.8605 Z" fill-rule="evenodd" clip-path="url(#clipPath2)" stroke="none"/>
    </g>
    <g text-rendering="geometricPrecision" stroke-miterlimit="1.45" shape-rendering="geometricPrecision" transform="matrix(1,0,0,1,-627,-1313)" stroke-linecap="butt">
      <path fill="none" d="M1112.74 1762.8605 L1127.74 1747.8605 L1142.74 1762.8605 L1127.74 1777.8605 Z" fill-rule="evenodd" clip-path="url(#clipPath2)"/>
    </g>
    <g fill="rgb(212,211,210)" text-rendering="geometricPrecision" shape-rendering="geometricPrecision" transform="matrix(1,0,0,1,-627,-1313)" stroke="rgb(212,211,210)">
      <rect x="707.7254" width="511.6748" height="83.5059" y="1793.9294" clip-path="url(#clipPath2)" stroke="none"/>
    </g>
    <g font-size="10px" stroke-linecap="butt" transform="matrix(1,0,0,1,-627,-1313)" text-rendering="geometricPrecision" font-family="sans-serif" shape-rendering="geometricPrecision" stroke-miterlimit="1.45">
      <text x="712.7254" xml:space="preserve" y="1808.983" clip-path="url(#clipPath2)" stroke="none">d = duration of the interval between two consecutive falling edges of the IR signal (rising at the IR sensor output); </text>
      <text x="712.7254" xml:space="preserve" y="1821.234" clip-path="url(#clipPath2)" stroke="none">bc = bitCount;     firstBC = bitCount of the first frame;    firstCode = code received in the first frame;</text>
      <text x="712.7254" xml:space="preserve" y="1833.485" clip-path="url(#clipPath2)" stroke="none">M0 and M1 are bit 0 and bit 1 marks:</text>
      <text x="712.7254" xml:space="preserve" y="1845.736" clip-path="url(#clipPath2)" stroke="none"> ‣ M0: [d&gt;=M0min &amp;&amp; d&lt;=M0max]</text>
      <text x="712.7254" xml:space="preserve" y="1857.9869" clip-path="url(#clipPath2)" stroke="none"> ‣ M1: [d&gt;=M1min &amp;&amp; d&lt;=M1max]</text>
      <text x="712.7254" xml:space="preserve" y="1870.2379" clip-path="url(#clipPath2)" stroke="none">pbr(b) = push code bits to the right and set code's MSB to b.</text>
    </g>
    <g text-rendering="geometricPrecision" stroke-miterlimit="1.45" stroke-dasharray="4,3,0,3" shape-rendering="geometricPrecision" transform="matrix(1,0,0,1,-627,-1313)" stroke-linecap="round">
      <path fill="none" d="M732.2299 1504.0066 L733.8549 1503.3002 L737.2322 1500.9343 L739.9864 1498.032 L742.0861 1494.7045 L743.4999 1491.0634 L744.1964 1487.22 L744.144 1483.2858 L743.3115 1479.3722 L741.6673 1475.5906 L739.3015 1472.2133 L736.3992 1469.459 L733.0717 1467.3593 L729.4305 1465.9456 L725.5872 1465.2491 L721.653 1465.3014 L717.7394 1466.1339 L713.9578 1467.7781 L710.5804 1470.1439 L707.8262 1473.0463 L705.7265 1476.3737 L704.3127 1480.0149 L704.2128 1480.566 L704.2174 1480.6659" clip-path="url(#clipPath2)"/>
      <path d="M703.8264 1488.6564 L709.4069 1476.9152 L704.2663 1479.6671 L699.4189 1476.4263 Z" clip-path="url(#clipPath2)" stroke="none"/>
      <text stroke-linecap="butt" x="706.6376" y="1459.2942" clip-path="url(#clipPath2)" font-family="sans-serif" stroke-dasharray="none" stroke="none" xml:space="preserve">else / possiblyHeld=false </text>
      <path fill="none" stroke-dasharray="6,2" d="M953.1935 1389.7008 L689.6951 1389.7008 L685.3201 1390.3258 L682.1951 1392.2008 L680.3201 1395.3258 L679.6951 1399.7008 L679.6951 1480.5547" clip-path="url(#clipPath2)" stroke-linecap="butt"/>
      <path stroke-dasharray="6,2" d="M679.6951 1488.5547 L684.6951 1476.5547 L679.6951 1479.5547 L674.6951 1476.5547 Z" clip-path="url(#clipPath2)" stroke-linecap="butt" stroke="none"/>
      <text stroke-linecap="butt" x="782.7362" y="1382.7125" clip-path="url(#clipPath2)" font-family="sans-serif" stroke-dasharray="none" stroke="none" xml:space="preserve">else (bit count error)</text>
      <path fill="none" stroke-dasharray="6,2" d="M885.2866 1684.0205 L885.2866 1653.1405 L884.6616 1648.7655 L882.7866 1645.6405 L879.6616 1643.7655 L875.2866 1643.1405 L716.8253 1643.1405 L712.4503 1642.5155 L709.3253 1640.6405 L707.4503 1637.5155 L706.8253 1633.1405 L706.8253 1606.7395" clip-path="url(#clipPath2)" stroke-linecap="butt"/>
      <path stroke-dasharray="6,2" d="M706.8253 1598.7395 L701.8253 1610.7395 L706.8253 1607.7395 L711.8253 1610.7395 Z" clip-path="url(#clipPath2)" stroke-linecap="butt" stroke="none"/>
      <text stroke-linecap="butt" x="752.0403" y="1635.6233" clip-path="url(#clipPath2)" font-family="sans-serif" stroke-dasharray="none" stroke="none" xml:space="preserve">else (code error)</text>
      <path fill="none" stroke-dasharray="none" d="M870.3203 1699.0205 L691.6252 1699.0205 L687.2502 1698.3955 L684.1252 1696.5205 L682.2502 1693.3955 L681.6252 1689.0205 L681.6252 1606.7302" clip-path="url(#clipPath2)" stroke-linecap="butt"/>
      <path stroke-dasharray="none" d="M681.6252 1598.7302 L676.6252 1610.7302 L681.6252 1607.7302 L686.6252 1610.7302 Z" clip-path="url(#clipPath2)" stroke-linecap="butt" stroke="none"/>
      <text stroke-linecap="butt" x="686.9081" y="1677.3746" clip-path="url(#clipPath2)" font-family="sans-serif" stroke-dasharray="none" stroke="none" xml:space="preserve">[code == firstCode] / decode(),</text>
      <text stroke-linecap="butt" x="686.9081" y="1692.0758" clip-path="url(#clipPath2)" font-family="sans-serif" stroke-dasharray="none" stroke="none" xml:space="preserve">keyHeld=false, possiblyHeld=true</text>
      <path fill="none" stroke-dasharray="6,2" d="M1215.359 1374.7334 L1215.359 1360.3008 L1214.734 1355.9258 L1212.859 1352.8008 L1209.734 1350.9258 L1205.359 1350.3008 L665.7066 1350.3008 L661.3316 1350.9258 L658.2066 1352.8008 L656.3316 1355.9258 L655.7066 1360.3008 L655.7066 1480.553" clip-path="url(#clipPath2)" stroke-linecap="butt"/>
      <path stroke-dasharray="6,2" d="M655.7066 1488.553 L660.7066 1476.553 L655.7066 1479.553 L650.7066 1476.553 Z" clip-path="url(#clipPath2)" stroke-linecap="butt" stroke="none"/>
      <text stroke-linecap="butt" x="892.1893" y="1342.5094" clip-path="url(#clipPath2)" font-family="sans-serif" stroke-dasharray="none" stroke="none" xml:space="preserve">else (code error)</text>
      <path fill="none" stroke-dasharray="none" d="M1076.7617 1389.7008 L991.1396 1389.7008" clip-path="url(#clipPath2)" stroke-linecap="butt"/>
      <path stroke-dasharray="none" d="M983.1396 1389.7008 L995.1396 1394.7008 L992.1396 1389.7008 L995.1396 1384.7008 Z" clip-path="url(#clipPath2)" stroke-linecap="butt" stroke="none"/>
      <text stroke-linecap="butt" x="1004.2369" y="1381.4147" clip-path="url(#clipPath2)" font-family="sans-serif" stroke-dasharray="none" stroke="none" xml:space="preserve">[frame==1]</text>
      <path fill="none" stroke-dasharray="none" d="M1106.7563 1389.7008 L1192.3784 1389.7008" clip-path="url(#clipPath2)" stroke-linecap="butt"/>
      <path stroke-dasharray="none" d="M1200.3784 1389.7008 L1188.3784 1384.7008 L1191.3784 1389.7008 L1188.3784 1394.7008 Z" clip-path="url(#clipPath2)" stroke-linecap="butt" stroke="none"/>
      <text stroke-linecap="butt" x="1121.5554" y="1382.2394" clip-path="url(#clipPath2)" font-family="sans-serif" stroke-dasharray="none" stroke="none" xml:space="preserve">[frame==2]</text>
      <path fill="none" stroke-dasharray="none" d="M1112.7444 1699.0205 L1034.2148 1699.0205" clip-path="url(#clipPath2)" stroke-linecap="butt"/>
      <path stroke-dasharray="none" d="M1026.2148 1699.0205 L1038.2148 1704.0205 L1035.2148 1699.0205 L1038.2148 1694.0205 Z" clip-path="url(#clipPath2)" stroke-linecap="butt" stroke="none"/>
      <text stroke-linecap="butt" x="1052.5629" y="1693.7362" clip-path="url(#clipPath2)" font-family="sans-serif" stroke-dasharray="none" stroke="none" xml:space="preserve">[frame==3]</text>
      <path fill="none" stroke-dasharray="none" d="M996.194 1699.0205 L908.2602 1699.0205" clip-path="url(#clipPath2)" stroke-linecap="butt"/>
      <path stroke-dasharray="none" d="M900.2602 1699.0205 L912.2602 1704.0205 L909.2602 1699.0205 L912.2602 1694.0205 Z" clip-path="url(#clipPath2)" stroke-linecap="butt" stroke="none"/>
      <text stroke-linecap="butt" x="917.3284" y="1693.4886" clip-path="url(#clipPath2)" font-family="sans-serif" stroke-dasharray="none" stroke="none" xml:space="preserve">[bc == firstBC]</text>
      <path fill="none" stroke-dasharray="none" d="M732.2242 1517.0562 L939.5378 1517.0562" clip-path="url(#clipPath2)" stroke-linecap="butt"/>
      <path stroke-dasharray="none" d="M947.5378 1517.0562 L935.5378 1512.0562 L938.5378 1517.0562 L935.5378 1522.0562 Z" clip-path="url(#clipPath2)" stroke-linecap="butt" stroke="none"/>
    </g>
    <g font-size="11px" stroke-linecap="butt" transform="matrix(1,0,0,1,-627,-1313)" text-rendering="geometricPrecision" font-family="sans-serif" shape-rendering="geometricPrecision" stroke-miterlimit="1.45">
      <text x="770.0236" xml:space="preserve" y="1485.9407" clip-path="url(#clipPath2)" stroke="none">[d &gt;= GapMin] / </text>
      <text x="770.0236" xml:space="preserve" y="1499.4167" clip-path="url(#clipPath2)" stroke="none">bc=0, code=0, frame=1,</text>
      <text x="770.0236" xml:space="preserve" y="1512.8928" clip-path="url(#clipPath2)" stroke="none">if(d&gt;GapMax) possiblyHeld=false </text>
      <path fill="none" d="M968.1591 1404.6884 L968.1591 1480.5869" clip-path="url(#clipPath2)"/>
      <path d="M968.1591 1488.5869 L973.1591 1476.5869 L968.1591 1479.5869 L963.1591 1476.5869 Z" stroke="none" clip-path="url(#clipPath2)"/>
      <text x="972.5828" xml:space="preserve" font-size="12px" y="1427.5323" clip-path="url(#clipPath2)" stroke="none">[bc is 12, 15 or 20] /</text>
      <text x="972.5828" xml:space="preserve" font-size="12px" y="1442.2335" clip-path="url(#clipPath2)" stroke="none">firstBC=bc, bc=0,</text>
      <text x="972.5828" xml:space="preserve" font-size="12px" y="1456.9347" clip-path="url(#clipPath2)" stroke="none">firstCode=code, </text>
      <text x="972.5828" xml:space="preserve" font-size="12px" y="1471.6359" clip-path="url(#clipPath2)" stroke="none">code=0, frame=2</text>
      <path fill="none" d="M1215.359 1404.7255 L1215.359 1480.5374" clip-path="url(#clipPath2)"/>
      <path d="M1215.359 1488.5374 L1220.359 1476.5374 L1215.359 1479.5374 L1210.359 1476.5374 Z" stroke="none" clip-path="url(#clipPath2)"/>
      <text x="1220.1965" xml:space="preserve" font-size="12px" y="1431.9753" clip-path="url(#clipPath2)" stroke="none">[code==firstCode]/ </text>
      <text x="1220.1965" xml:space="preserve" font-size="12px" y="1446.6765" clip-path="url(#clipPath2)" stroke="none">code=0, bc=0,</text>
      <text x="1220.1965" xml:space="preserve" font-size="12px" y="1461.3777" clip-path="url(#clipPath2)" stroke="none">frame=3</text>
      <path fill="none" d="M1011.1899 1684.0319 L1011.1899 1606.7346" clip-path="url(#clipPath2)"/>
      <path d="M1011.1899 1598.7346 L1006.1899 1610.7346 L1011.1899 1607.7346 L1016.1899 1610.7346 Z" stroke="none" clip-path="url(#clipPath2)"/>
      <text x="1014.8394" xml:space="preserve" font-size="12px" y="1650.5599" clip-path="url(#clipPath2)" stroke="none">else</text>
      <path fill="none" d="M1142.7532 1699.0205 L1228.54 1699.0205 L1232.915 1698.3955 L1236.04 1696.5205 L1237.915 1693.3955 L1238.54 1689.0205 L1238.54 1606.6884" clip-path="url(#clipPath2)"/>
      <path d="M1238.54 1598.6884 L1233.54 1610.6884 L1238.54 1607.6884 L1243.54 1610.6884 Z" stroke="none" clip-path="url(#clipPath2)"/>
      <text x="1150.7776" xml:space="preserve" font-size="12px" y="1693.7175" clip-path="url(#clipPath2)" stroke="none">[frame==2]</text>
      <path fill="none" stroke-dasharray="6,2" d="M947.5485 1555.467 L740.2222 1555.467" clip-path="url(#clipPath2)"/>
      <path stroke-dasharray="6,2" d="M732.2222 1555.467 L744.2222 1560.467 L741.2222 1555.467 L744.2222 1550.467 Z" clip-path="url(#clipPath2)" stroke="none"/>
      <text x="774.1843" xml:space="preserve" font-size="12px" y="1536.8862" clip-path="url(#clipPath2)" stroke="none">[not bitMark &amp;&amp; not Gap </text>
      <text x="774.1843" xml:space="preserve" font-size="12px" y="1551.5874" clip-path="url(#clipPath2)" stroke="none">&amp;&amp; (frame 1 || frame 2)]</text>
      <path fill="none" d="M1082.9095 1598.7052 L1082.9095 1649.6 L1083.5345 1653.975 L1085.4095 1657.1 L1088.5345 1658.975 L1092.9095 1659.6 L1117.74 1659.6 L1122.115 1660.1119 L1125.24 1661.6478 L1127.115 1664.2075 L1127.74 1667.7913 L1127.74 1675.9825" clip-path="url(#clipPath2)"/>
      <path d="M1127.74 1683.9825 L1132.74 1671.9825 L1127.74 1674.9825 L1122.74 1671.9825 Z" stroke="none" clip-path="url(#clipPath2)"/>
      <text x="1086.5355" xml:space="preserve" font-size="12px" y="1620.2372" clip-path="url(#clipPath2)" stroke="none">M1 /</text>
      <text x="1086.5355" xml:space="preserve" font-size="12px" y="1634.9384" clip-path="url(#clipPath2)" stroke="none">pbr(1)</text>
      <text x="1086.5355" xml:space="preserve" font-size="12px" y="1649.6395" clip-path="url(#clipPath2)" stroke="none">bc++</text>
      <path fill="none" d="M1162.74 1598.7217 L1162.74 1649.6 L1162.115 1653.975 L1160.24 1657.1 L1157.115 1658.975 L1152.74 1659.6 L1137.74 1659.6 L1133.365 1660.1119 L1130.24 1661.6478 L1128.365 1664.2075 L1127.74 1667.7913 L1127.74 1675.9825" clip-path="url(#clipPath2)"/>
      <path d="M1127.74 1683.9825 L1132.74 1671.9825 L1127.74 1674.9825 L1122.74 1671.9825 Z" stroke="none" clip-path="url(#clipPath2)"/>
      <text x="1166.6372" xml:space="preserve" font-size="12px" y="1621.5011" clip-path="url(#clipPath2)" stroke="none">M0 /</text>
      <text x="1166.6372" xml:space="preserve" font-size="12px" y="1636.2023" clip-path="url(#clipPath2)" stroke="none">pbr(0)</text>
      <text x="1166.6372" xml:space="preserve" font-size="12px" y="1650.9034" clip-path="url(#clipPath2)" stroke="none">bc++</text>
      <path fill="none" stroke-dasharray="6,2" d="M947.562 1585.467 L740.231 1585.467" clip-path="url(#clipPath2)"/>
      <path stroke-dasharray="6,2" d="M732.231 1585.467 L744.231 1590.467 L741.231 1585.467 L744.231 1580.467 Z" clip-path="url(#clipPath2)" stroke="none"/>
      <text x="775.1921" xml:space="preserve" font-size="12px" y="1581.7183" clip-path="url(#clipPath2)" stroke="none">[not bitMark &amp;&amp; frame 3]</text>
      <path fill="none" d="M1091.759 1488.5592 L1091.759 1412.713" clip-path="url(#clipPath2)"/>
      <path d="M1091.759 1404.713 L1086.759 1416.713 L1091.759 1413.713 L1096.759 1416.713 Z" stroke="none" clip-path="url(#clipPath2)"/>
      <text x="1095.3992" xml:space="preserve" font-size="12px" y="1443.9945" clip-path="url(#clipPath2)" stroke="none">[d &gt;= GapMin &amp;&amp; </text>
      <text x="1095.3992" xml:space="preserve" font-size="12px" y="1458.6957" clip-path="url(#clipPath2)" stroke="none">d &lt;= GapMax]</text>
      <path fill="none" d="M1127.74 1714 L1127.74 1739.823" clip-path="url(#clipPath2)"/>
      <path d="M1127.74 1747.823 L1132.74 1735.823 L1127.74 1738.823 L1122.74 1735.823 Z" stroke="none" clip-path="url(#clipPath2)"/>
      <text x="1131.0643" xml:space="preserve" font-size="12px" y="1727.2843" clip-path="url(#clipPath2)" stroke="none">[frame==1]</text>
      <path fill="none" d="M1112.7521 1762.8605 L670.0039 1762.8605 L665.6289 1762.2355 L662.5039 1760.3605 L660.6289 1757.2355 L660.0039 1752.8605 L660.0039 1606.6812" clip-path="url(#clipPath2)"/>
      <path d="M660.0039 1598.6812 L655.0039 1610.6812 L660.0039 1607.6812 L665.0039 1610.6812 Z" stroke="none" clip-path="url(#clipPath2)"/>
      <text x="699.8707" xml:space="preserve" font-size="12px" y="1755.3225" clip-path="url(#clipPath2)" stroke="none">[possiblyHeld &amp;&amp; bc == firstBC &amp;&amp; code == firstCode] /  keyHeld = true</text>
      <path fill="none" d="M1142.7338 1762.8605 L1262.2451 1762.8605 L1266.6201 1762.2355 L1269.7451 1760.3605 L1271.6201 1757.2355 L1272.2451 1752.8605 L1272.2451 1606.677" clip-path="url(#clipPath2)"/>
      <path d="M1272.2451 1598.677 L1267.2451 1610.677 L1272.2451 1607.677 L1277.2451 1610.677 Z" stroke="none" clip-path="url(#clipPath2)"/>
      <text x="1153.6323" xml:space="preserve" font-size="12px" y="1758.0288" clip-path="url(#clipPath2)" stroke="none">else</text>
    </g>
  </g>
</svg>
