<svg xmlns="http://www.w3.org/2000/svg" viewBox="0 0 1292.84 1121.97"><defs><style>.a{fill:#f6ffd7;}.b{fill:#e9ffed;}.c{fill:#ccc;stroke:#000490;stroke-width:2px;opacity:0.25;}.ad,.ae,.af,.ag,.ai,.aj,.ak,.al,.am,.an,.ao,.ap,.ar,.as,.at,.au,.av,.aw,.ba,.bb,.bc,.bd,.be,.bf,.bg,.bh,.bi,.bj,.bk,.bl,.bm,.bn,.bo,.bp,.bq,.c,.d,.j,.x,.y,.z{stroke-miterlimit:10;}.ad,.ae,.af,.ag,.ai,.aj,.ak,.al,.am,.an,.ao,.ap,.ar,.as,.at,.au,.av,.aw,.ba,.bb,.bc,.bd,.be,.bf,.bg,.bh,.bi,.bj,.bk,.bl,.bm,.bn,.bo,.bp,.bq,.d,.x,.z{fill:none;}.d,.y{stroke:#0f8a00;}.aw,.d,.y{stroke-width:0.75px;}.e,.f{font-size:11px;}.aq,.e{fill:#0f8a00;}.aa,.ab,.ac,.ax,.br,.e,.f,.l,.u,.v,.w{font-family:LiberationSans-Regular, Liberation Sans;}.g{font-size:13px;}.g,.p{font-family:LiberationSansNarrow, Liberation Sans Narrow;}.h{font-family:SymbolMT, Symbol;}.i{letter-spacing:-0.01em;}.j{fill:#999;opacity:0.3;}.ad,.ae,.af,.ag,.ai,.aj,.ak,.al,.am,.an,.ao,.ap,.ar,.as,.at,.au,.av,.aw,.ba,.bb,.bc,.bd,.be,.bf,.bg,.bh,.bi,.bj,.bk,.bl,.bm,.bn,.bo,.bp,.bq,.j,.z{stroke:#000;}.aa,.ab,.k{font-size:14px;}.k{fill:#333;}.ay,.k{font-family:LiberationSans-Bold, Liberation Sans;font-weight:700;}.l{font-weight:400;fill:#000;}.m{letter-spacing:-0.07em;}.n{letter-spacing:-0.04em;}.o{letter-spacing:-0.02em;}.ah,.p,.u{font-size:12px;}.q{fill:#77ff1f;}.q,.r,.s{opacity:0.4;}.r{fill:#004a00;}.s{fill:#7f9cff;}.t{fill:#005ce9;opacity:0.5;}.v{font-size:6px;}.w{font-size:10px;}.x{stroke:#c91c00;}.ad,.ae,.af,.ag,.ai,.aj,.ak,.al,.am,.an,.ao,.ap,.ar,.as,.at,.au,.av,.ba,.bb,.bc,.bd,.be,.bf,.bg,.bh,.bi,.bj,.bk,.bl,.bm,.bn,.bo,.bp,.bq,.x,.z{stroke-width:0.5px;}.y{fill:#cfc;}.ab,.ac{fill:#03c;}.ac{font-size:15px;}.ad{stroke-dasharray:1.98 1.98;}.ae{stroke-dasharray:2.12 2.12;}.af{stroke-dasharray:1.64 1.64;}.ag{stroke-dasharray:1.94 1.94;}.ai{stroke-dasharray:2.03 2.03;}.aj{stroke-dasharray:2 2;}.ak{stroke-dasharray:1.95 1.95;}.al{stroke-dasharray:1.97 1.97;}.am{stroke-dasharray:2.04 2.04;}.an{stroke-dasharray:1.95 1.95;}.ao{stroke-dasharray:1.99 1.99;}.ap{stroke-dasharray:1.87 1.87;}.ar{stroke-dasharray:2 2;}.as{stroke-dasharray:2.13 2.13;}.at{stroke-dasharray:2.2 2.2;}.au{stroke-dasharray:1.95 1.95;}.av{stroke-dasharray:1.93 1.93;}.ax{font-size:16px;fill:#666;}.ax,.ay{text-decoration:underline;}.ay{font-size:18px;fill:#003;}.az{letter-spacing:-0.11em;}.ba{stroke-dasharray:1.94 1.94;}.bb{stroke-dasharray:2.14 2.14;}.bc{stroke-dasharray:1.91 1.91;}.bd{stroke-dasharray:2.01 2.01;}.be{stroke-dasharray:1.92 1.92;}.bf{stroke-dasharray:2.02 2.02;}.bg{stroke-dasharray:1.94 1.94;}.bh{stroke-dasharray:1.94 1.94;}.bi{stroke-dasharray:2.06 2.06;}.bj{stroke-dasharray:2.04 2.04;}.bk{stroke-dasharray:1.91 1.91;}.bl{stroke-dasharray:1.99 1.99;}.bm{stroke-dasharray:2 2;}.bn{stroke-dasharray:1.76 1.76;}.bo{stroke-dasharray:1.2 1.2;}.bp{stroke-dasharray:2.01 2.01;}.bq{stroke-dasharray:2.02 2.02;}.br{font-size:8px;}</style></defs><rect class="a" width="1292.84" height="368.34"/><rect class="b" y="368.34" width="1292.84" height="753.63"/><rect class="c" x="811.57" y="758.39" width="460.74" height="191.42"/><rect class="c" x="22.86" y="963.77" width="1249.45" height="136.59"/><rect class="c" x="22.86" y="758.39" width="247.58" height="191.42"/><rect class="c" x="284.84" y="758.39" width="513.31" height="191.42"/><polyline class="d" points="820.12 854.53 845.09 854.53 845.09 829.48 880.62 829.48 880.62 854.53 987.2 854.53 987.2 829.48 1022.72 829.48 1022.72 854.53 1042.89 854.53"/><text class="e" transform="translate(942.41 800.65)">M1</text><text class="f" transform="translate(914.47 883.87)">M0 max</text><text class="e" transform="translate(909.7 898.35)">M0</text><text class="f" transform="translate(916.47 817.61)">M1 min</text><polyline class="d" points="820.12 933.92 844.85 933.92 844.85 908.46 880.38 908.46 880.38 933.92 915.91 933.92 915.91 908.46 951.43 908.46 951.43 933.92 986.96 933.92 986.99 933.92 1041.84 933.92"/><text class="g" transform="translate(1054.52 804.59)"><tspan xml:space="preserve">M1min &gt; 3/4 M1  </tspan><tspan class="h" x="82.67" y="0">⇔</tspan><tspan x="96.21" y="0" xml:space="preserve">  M1min &gt;  75% of M1</tspan><tspan x="0" y="15.6">Let</tspan><tspan class="i" x="14.82" y="15.6">’</tspan><tspan x="17.01" y="15.6">s use 70% of M1 for a 30% tolerance</tspan><tspan x="0" y="46.8" xml:space="preserve">M0max &lt; 3/2 M0  </tspan><tspan class="h" x="85.63" y="46.8">⇔</tspan><tspan x="99.18" y="46.8" xml:space="preserve">  M0max &lt; 150% of M0</tspan><tspan x="0" y="62.4">Let</tspan><tspan class="i" x="14.82" y="62.4">’</tspan><tspan x="17.01" y="62.4">s use 130% of M0 for a 30% tolerance</tspan><tspan x="0" y="93.6">M1max and M0min are not constrained by</tspan><tspan x="0" y="109.2">other values, (as well as LMmax and RMmin)</tspan><tspan x="0" y="124.8">let</tspan><tspan class="i" x="11.26" y="124.8">’</tspan><tspan x="13.44" y="124.8" xml:space="preserve">s set all of them  with a tolerance of 30%.</tspan></text><rect class="j" x="42.1" y="1001.9" width="129.71" height="86.93"/><text class="k" transform="translate(52.53 1017.17)">Bit Mark 0:<tspan class="l"><tspan x="0" y="33.6">M0max = 1.3 M0</tspan><tspan x="0" y="50.4">M0min = 0.7 M0</tspan><tspan x="0" y="67.2">(M0 = </tspan><tspan class="m" x="40.07" y="67.2">1</tspan><tspan x="46.81" y="67.2">125 µs)</tspan></tspan></text><rect class="j" x="355.55" y="979.74" width="148.25" height="109.1"/><text class="k" transform="translate(367.99 996.9)">Repetition Mark:<tspan class="l"><tspan x="0" y="31.2">RMmin = 0.7 RM</tspan><tspan x="0" y="48">RMmax = RM + Rt</tspan><tspan x="0" y="64.8">(RM = </tspan><tspan x="42.39" y="64.8">2812.5</tspan><tspan x="85.21" y="64.8" xml:space="preserve"> µs)</tspan><tspan x="0" y="81.6">(Rt = </tspan><tspan x="34.62" y="81.6">803.6 </tspan><tspan x="73.54" y="81.6">µs) </tspan></tspan></text><rect class="j" x="715.27" y="979.74" width="168.59" height="108.5"/><text class="k" transform="translate(727.38 996.9)">Gap:<tspan class="l"><tspan x="0" y="31.2">GapMin = 0.7 Gap1</tspan><tspan x="0" y="48">GapMax = 1.3 Gap2</tspan><tspan x="0" y="64.8" xml:space="preserve">(Gap1 =  </tspan><tspan x="58.75" y="64.8">48937.5</tspan><tspan x="109.36" y="64.8" xml:space="preserve"> µs)</tspan><tspan x="0" y="81.6" xml:space="preserve">(Gap2 =  </tspan><tspan x="58.75" y="81.6">105187.5 </tspan><tspan x="121.04" y="81.6">µs)</tspan></tspan></text><rect class="j" x="911.15" y="978.81" width="344.64" height="108.5"/><text class="k" transform="translate(923.49 996.9)">Note:<tspan class="l"><tspan x="0" y="33.6">The OnRise mode was too ristrictive with</tspan><tspan x="0" y="50.4">the leading/repeating marks</tspan><tspan class="n" x="172.77" y="50.4">’</tspan><tspan x="175.36" y="50.4" xml:space="preserve"> tolerances.</tspan><tspan x="0" y="67.2">With Rt at </tspan><tspan class="m" x="65.34" y="67.2">1</tspan><tspan x="72.09" y="67.2">1% of RM, Lt could not be higher than </tspan><tspan x="0" y="84">8.33% of LM. Now both Rt and </tspan><tspan class="m" x="194.55" y="84">L</tspan><tspan class="o" x="201.3" y="84">T</tspan><tspan x="209.6" y="84" xml:space="preserve"> are at 28.6%</tspan></tspan></text><rect class="j" x="531.09" y="979.74" width="156.88" height="109.1"/><text class="k" transform="translate(543.06 996.9)">Leading Mark:<tspan class="l"><tspan x="0" y="38.4">LMmax = 1.3 LM</tspan><tspan x="0" y="55.2">LMmin = RMmax + 1 </tspan><tspan x="0" y="72">(LM = 5062.5 µs)</tspan></tspan></text><text class="p" transform="translate(569.9 796.89)">If both marks have the same tolerance percentage,<tspan x="0" y="14.4" xml:space="preserve">then:  Lt / LM = Rt / RM </tspan><tspan class="h" x="104.75" y="14.4">⇔</tspan><tspan x="117.26" y="14.4" xml:space="preserve"> Lt × RM = Rt × LM</tspan><tspan x="0" y="28.8" xml:space="preserve">and because  RM+Rt+Lt=LM </tspan><tspan class="h" x="128.83" y="28.8">⇔</tspan><tspan x="141.33" y="28.8" xml:space="preserve"> Rt = LM-RM-Lt  </tspan><tspan x="0" y="43.2">Substituting into the previous equation we get:</tspan><tspan x="0" y="57.6">Lt × RM = (LM-RM-Lt) × LM</tspan><tspan x="0" y="72">and after solving for Lt:</tspan><tspan x="0" y="86.4">Lt=(LM² - LM × RM) / (RM+LM)</tspan><tspan x="0" y="100.8" xml:space="preserve">Knowing that:   Rt+Lt=2.25</tspan><tspan x="0" y="115.2" xml:space="preserve">LM=5.0625   and   RM=2.8125   we get:</tspan><tspan x="0" y="129.6" xml:space="preserve">Lt = 1.4464   and   Rt = 0.8036</tspan><tspan x="0" y="144">(Lt is 28.6% of LM and Rt is 28.6% of RM)</tspan></text><rect class="j" x="199.11" y="1001.31" width="129.15" height="86.93"/><text class="k" transform="translate(209.45 1017.17)">Bit Mark 1:<tspan class="l"><tspan x="0" y="33.6">M1min = 0.7 M1</tspan><tspan x="0" y="50.4">M1max = 1.3 M1</tspan><tspan x="0" y="67.2">(M1 = 2250 µs)</tspan></tspan></text><rect class="q" x="962.31" y="34.02" width="260" height="24.26"/><rect class="r" x="742.31" y="34.02" width="220" height="24.26"/><rect class="s" x="422.31" y="34.02" width="320" height="24.26"/><rect class="t" x="262.31" y="34.02" width="160" height="24.26"/><text class="u" transform="translate(274.31 55.91)">0</text><text class="v" transform="translate(272.67 44.92)">LSB</text><text class="v" transform="translate(408.31 44.92)">MSB</text><text class="v" transform="translate(719.31 44.92)">MSB</text><text class="v" transform="translate(948.84 44.92)">MSB</text><text class="w" transform="translate(318.33 44.92)">Address</text><text class="w" transform="translate(535.87 44.92)">~Address</text><text class="v" transform="translate(442.7 44.92)">LSB</text><text class="w" transform="translate(832.31 44.92)">Command</text><text class="w" transform="translate(1057.01 44.92)">~Command</text><text class="v" transform="translate(762.31 44.92)">LSB</text><text class="v" transform="translate(1201.31 44.92)">MSB</text><text class="v" transform="translate(971.37 44.92)">LSB</text><text class="u" transform="translate(294.18 55.91)">0</text><text class="u" transform="translate(314.06 55.91)">0</text><text class="u" transform="translate(333.93 55.91)">0</text><text class="u" transform="translate(353.8 55.91)">0</text><text class="u" transform="translate(373.68 55.91)">0</text><text class="u" transform="translate(393.55 55.91)">0</text><text class="u" transform="translate(413.42 55.91)">0</text><text class="u" transform="translate(874.31 55.91)">0</text><text class="u" transform="translate(893.98 55.91)">0</text><text class="u" transform="translate(913.66 55.91)">0</text><text class="u" transform="translate(933.33 55.91)">0</text><text class="u" transform="translate(953 55.91)">0</text><text class="u" transform="translate(974.37 55.91)">0</text><text class="u" transform="translate(994.55 55.91)">0</text><text class="u" transform="translate(1014.73 55.91)">0</text><text class="u" transform="translate(445.31 55.91)">1</text><text class="u" transform="translate(484.98 55.91)">1</text><text class="u" transform="translate(524.66 55.91)">1</text><text class="u" transform="translate(564.33 55.91)">1</text><text class="u" transform="translate(604 55.91)">1</text><text class="u" transform="translate(643.68 55.91)">1</text><text class="u" transform="translate(683.35 55.91)">1</text><text class="u" transform="translate(723.02 55.91)">1</text><text class="u" transform="translate(764.73 55.91)">1</text><text class="u" transform="translate(805.47 55.91)">1</text><text class="u" transform="translate(845.03 55.91)">1</text><text class="u" transform="translate(1044.81 55.91)">1</text><text class="u" transform="translate(1085.96 55.91)">1</text><text class="u" transform="translate(1124.33 55.91)">1</text><text class="u" transform="translate(1164.68 55.91)">1</text><text class="u" transform="translate(1204.64 55.91)">1</text><line class="x" x1="22.31" y1="107.29" x2="22.31" y2="111.29"/><line class="x" x1="32.31" y1="107.29" x2="32.31" y2="111.29"/><line class="x" x1="42.31" y1="107.29" x2="42.31" y2="111.29"/><line class="x" x1="52.31" y1="107.29" x2="52.31" y2="111.29"/><line class="x" x1="62.31" y1="107.29" x2="62.31" y2="111.29"/><line class="x" x1="72.31" y1="107.29" x2="72.31" y2="111.29"/><line class="x" x1="82.31" y1="107.29" x2="82.31" y2="111.29"/><line class="x" x1="92.31" y1="107.29" x2="92.31" y2="111.29"/><line class="x" x1="102.31" y1="107.29" x2="102.31" y2="111.29"/><line class="x" x1="112.31" y1="107.29" x2="112.31" y2="111.29"/><line class="x" x1="122.31" y1="107.29" x2="122.31" y2="111.29"/><line class="x" x1="132.31" y1="107.29" x2="132.31" y2="111.29"/><line class="x" x1="142.31" y1="107.29" x2="142.31" y2="111.29"/><line class="x" x1="152.31" y1="107.29" x2="152.31" y2="111.29"/><line class="x" x1="162.31" y1="107.29" x2="162.31" y2="111.29"/><line class="x" x1="172.31" y1="107.29" x2="172.31" y2="111.29"/><line class="x" x1="182.31" y1="107.29" x2="182.31" y2="111.29"/><line class="x" x1="192.31" y1="107.29" x2="192.31" y2="111.29"/><line class="x" x1="202.31" y1="107.29" x2="202.31" y2="111.29"/><line class="x" x1="212.31" y1="107.29" x2="212.31" y2="111.29"/><line class="x" x1="222.31" y1="107.29" x2="222.31" y2="111.29"/><line class="x" x1="232.31" y1="107.29" x2="232.31" y2="111.29"/><line class="x" x1="242.31" y1="107.29" x2="242.31" y2="111.29"/><line class="x" x1="252.31" y1="107.29" x2="252.31" y2="111.29"/><line class="x" x1="262.31" y1="107.29" x2="262.31" y2="111.29"/><line class="x" x1="272.31" y1="107.29" x2="272.31" y2="111.29"/><line class="x" x1="282.31" y1="107.29" x2="282.31" y2="111.29"/><line class="x" x1="292.31" y1="107.29" x2="292.31" y2="111.29"/><line class="x" x1="302.31" y1="107.29" x2="302.31" y2="111.29"/><line class="x" x1="312.31" y1="107.29" x2="312.31" y2="111.29"/><line class="x" x1="322.31" y1="107.29" x2="322.31" y2="111.29"/><line class="x" x1="332.31" y1="107.29" x2="332.31" y2="111.29"/><line class="x" x1="342.31" y1="107.29" x2="342.31" y2="111.29"/><line class="x" x1="352.31" y1="107.29" x2="352.31" y2="111.29"/><line class="x" x1="362.31" y1="107.29" x2="362.31" y2="111.29"/><line class="x" x1="372.31" y1="107.29" x2="372.31" y2="111.29"/><line class="x" x1="382.31" y1="107.29" x2="382.31" y2="111.29"/><line class="x" x1="392.31" y1="107.29" x2="392.31" y2="111.29"/><line class="x" x1="402.31" y1="107.29" x2="402.31" y2="111.29"/><line class="x" x1="412.31" y1="107.29" x2="412.31" y2="111.29"/><line class="x" x1="422.31" y1="107.29" x2="422.31" y2="111.29"/><line class="x" x1="432.31" y1="107.29" x2="432.31" y2="111.29"/><line class="x" x1="442.31" y1="107.29" x2="442.31" y2="111.29"/><line class="x" x1="452.31" y1="107.29" x2="452.31" y2="111.29"/><line class="x" x1="462.31" y1="107.29" x2="462.31" y2="111.29"/><line class="x" x1="472.31" y1="107.29" x2="472.31" y2="111.29"/><line class="x" x1="482.31" y1="107.29" x2="482.31" y2="111.29"/><line class="x" x1="492.31" y1="107.29" x2="492.31" y2="111.29"/><line class="x" x1="502.31" y1="107.29" x2="502.31" y2="111.29"/><line class="x" x1="512.31" y1="107.29" x2="512.31" y2="111.29"/><line class="x" x1="522.31" y1="107.29" x2="522.31" y2="111.29"/><line class="x" x1="532.31" y1="107.29" x2="532.31" y2="111.29"/><line class="x" x1="542.31" y1="107.29" x2="542.31" y2="111.29"/><line class="x" x1="552.31" y1="107.29" x2="552.31" y2="111.29"/><line class="x" x1="562.31" y1="107.29" x2="562.31" y2="111.29"/><line class="x" x1="572.31" y1="107.29" x2="572.31" y2="111.29"/><line class="x" x1="582.31" y1="107.29" x2="582.31" y2="111.29"/><line class="x" x1="592.31" y1="107.29" x2="592.31" y2="111.29"/><line class="x" x1="602.31" y1="107.29" x2="602.31" y2="111.29"/><line class="x" x1="612.31" y1="107.29" x2="612.31" y2="111.29"/><line class="x" x1="622.31" y1="107.29" x2="622.31" y2="111.29"/><line class="x" x1="632.31" y1="107.29" x2="632.31" y2="111.29"/><line class="x" x1="642.31" y1="107.29" x2="642.31" y2="111.29"/><line class="x" x1="652.31" y1="107.29" x2="652.31" y2="111.29"/><line class="x" x1="662.31" y1="107.29" x2="662.31" y2="111.29"/><line class="x" x1="672.31" y1="107.29" x2="672.31" y2="111.29"/><line class="x" x1="682.31" y1="107.29" x2="682.31" y2="111.29"/><line class="x" x1="692.31" y1="107.29" x2="692.31" y2="111.29"/><line class="x" x1="702.31" y1="107.29" x2="702.31" y2="111.29"/><line class="x" x1="712.31" y1="107.29" x2="712.31" y2="111.29"/><line class="x" x1="722.31" y1="107.29" x2="722.31" y2="111.29"/><line class="x" x1="732.31" y1="107.29" x2="732.31" y2="111.29"/><line class="x" x1="742.31" y1="107.29" x2="742.31" y2="111.29"/><line class="x" x1="752.31" y1="107.29" x2="752.31" y2="111.29"/><line class="x" x1="762.31" y1="107.29" x2="762.31" y2="111.29"/><line class="x" x1="772.31" y1="107.29" x2="772.31" y2="111.29"/><line class="x" x1="782.31" y1="107.29" x2="782.31" y2="111.29"/><line class="x" x1="792.31" y1="107.29" x2="792.31" y2="111.29"/><line class="x" x1="802.31" y1="107.29" x2="802.31" y2="111.29"/><line class="x" x1="812.31" y1="107.29" x2="812.31" y2="111.29"/><line class="x" x1="822.31" y1="107.29" x2="822.31" y2="111.29"/><line class="x" x1="832.31" y1="107.29" x2="832.31" y2="111.29"/><line class="x" x1="842.31" y1="107.29" x2="842.31" y2="111.29"/><line class="x" x1="852.31" y1="107.29" x2="852.31" y2="111.29"/><line class="x" x1="862.31" y1="107.29" x2="862.31" y2="111.29"/><line class="x" x1="872.31" y1="107.29" x2="872.31" y2="111.29"/><line class="x" x1="882.31" y1="107.29" x2="882.31" y2="111.29"/><line class="x" x1="892.31" y1="107.29" x2="892.31" y2="111.29"/><line class="x" x1="902.31" y1="107.29" x2="902.31" y2="111.29"/><line class="x" x1="912.31" y1="107.29" x2="912.31" y2="111.29"/><line class="x" x1="922.31" y1="107.29" x2="922.31" y2="111.29"/><line class="x" x1="932.31" y1="107.29" x2="932.31" y2="111.29"/><line class="x" x1="942.31" y1="107.29" x2="942.31" y2="111.29"/><line class="x" x1="952.31" y1="107.29" x2="952.31" y2="111.29"/><line class="x" x1="962.31" y1="107.29" x2="962.31" y2="111.29"/><line class="x" x1="972.31" y1="107.29" x2="972.31" y2="111.29"/><line class="x" x1="982.31" y1="107.29" x2="982.31" y2="111.29"/><line class="x" x1="992.31" y1="107.29" x2="992.31" y2="111.29"/><line class="x" x1="1002.31" y1="107.29" x2="1002.31" y2="111.29"/><line class="x" x1="1012.31" y1="107.29" x2="1012.31" y2="111.29"/><line class="x" x1="1022.31" y1="107.29" x2="1022.31" y2="111.29"/><line class="x" x1="1032.31" y1="107.29" x2="1032.31" y2="111.29"/><line class="x" x1="1042.31" y1="107.29" x2="1042.31" y2="111.29"/><line class="x" x1="1052.31" y1="107.29" x2="1052.31" y2="111.29"/><line class="x" x1="1062.31" y1="107.29" x2="1062.31" y2="111.29"/><line class="x" x1="1072.31" y1="107.29" x2="1072.31" y2="111.29"/><line class="x" x1="1082.31" y1="107.29" x2="1082.31" y2="111.29"/><line class="x" x1="1092.31" y1="107.29" x2="1092.31" y2="111.29"/><line class="x" x1="1102.31" y1="107.29" x2="1102.31" y2="111.29"/><line class="x" x1="1112.31" y1="107.29" x2="1112.31" y2="111.29"/><line class="x" x1="1122.31" y1="107.29" x2="1122.31" y2="111.29"/><line class="x" x1="1132.31" y1="107.29" x2="1132.31" y2="111.29"/><line class="x" x1="1142.31" y1="107.29" x2="1142.31" y2="111.29"/><line class="x" x1="1152.31" y1="107.29" x2="1152.31" y2="111.29"/><line class="x" x1="1162.31" y1="107.29" x2="1162.31" y2="111.29"/><line class="x" x1="1172.31" y1="107.29" x2="1172.31" y2="111.29"/><line class="x" x1="1182.31" y1="107.29" x2="1182.31" y2="111.29"/><line class="x" x1="1192.31" y1="107.29" x2="1192.31" y2="111.29"/><line class="x" x1="1202.31" y1="107.29" x2="1202.31" y2="111.29"/><line class="x" x1="1212.31" y1="107.29" x2="1212.31" y2="111.29"/><line class="x" x1="1222.31" y1="107.29" x2="1222.31" y2="111.29"/><line class="x" x1="1232.31" y1="107.29" x2="1232.31" y2="111.29"/><line class="x" x1="1242.31" y1="107.29" x2="1242.31" y2="111.29"/><line class="x" x1="1252.31" y1="107.29" x2="1252.31" y2="111.29"/><line class="x" x1="1262.31" y1="107.29" x2="1262.31" y2="111.29"/><line class="x" x1="22.31" y1="109.29" x2="1272.31" y2="109.34"/><line class="x" x1="22.31" y1="487.66" x2="22.31" y2="491.66"/><line class="x" x1="32.31" y1="487.66" x2="32.31" y2="491.66"/><line class="x" x1="42.31" y1="487.66" x2="42.31" y2="491.66"/><line class="x" x1="52.31" y1="487.66" x2="52.31" y2="491.66"/><line class="x" x1="62.31" y1="487.66" x2="62.31" y2="491.66"/><line class="x" x1="72.31" y1="487.66" x2="72.31" y2="491.66"/><line class="x" x1="82.31" y1="487.66" x2="82.31" y2="491.66"/><line class="x" x1="92.31" y1="487.66" x2="92.31" y2="491.66"/><line class="x" x1="102.31" y1="487.66" x2="102.31" y2="491.66"/><line class="x" x1="112.31" y1="487.66" x2="112.31" y2="491.66"/><line class="x" x1="122.31" y1="487.66" x2="122.31" y2="491.66"/><line class="x" x1="132.31" y1="487.66" x2="132.31" y2="491.66"/><line class="x" x1="142.31" y1="487.66" x2="142.31" y2="491.66"/><line class="x" x1="152.31" y1="487.66" x2="152.31" y2="491.66"/><line class="x" x1="162.31" y1="487.66" x2="162.31" y2="491.66"/><line class="x" x1="172.31" y1="487.66" x2="172.31" y2="491.66"/><line class="x" x1="182.31" y1="487.66" x2="182.31" y2="491.66"/><line class="x" x1="192.31" y1="487.66" x2="192.31" y2="491.66"/><line class="x" x1="202.31" y1="487.66" x2="202.31" y2="491.66"/><line class="x" x1="212.31" y1="487.66" x2="212.31" y2="491.66"/><line class="x" x1="222.31" y1="487.66" x2="222.31" y2="491.66"/><line class="x" x1="232.31" y1="487.66" x2="232.31" y2="491.66"/><line class="x" x1="242.31" y1="487.66" x2="242.31" y2="491.66"/><line class="x" x1="252.31" y1="487.66" x2="252.31" y2="491.66"/><line class="x" x1="262.31" y1="487.66" x2="262.31" y2="491.66"/><line class="x" x1="272.31" y1="487.66" x2="272.31" y2="491.66"/><line class="x" x1="282.31" y1="487.66" x2="282.31" y2="491.66"/><line class="x" x1="292.31" y1="487.66" x2="292.31" y2="491.66"/><line class="x" x1="302.31" y1="487.66" x2="302.31" y2="491.66"/><line class="x" x1="312.31" y1="487.66" x2="312.31" y2="491.66"/><line class="x" x1="322.31" y1="487.66" x2="322.31" y2="491.66"/><line class="x" x1="332.31" y1="487.66" x2="332.31" y2="491.66"/><line class="x" x1="342.31" y1="487.66" x2="342.31" y2="491.66"/><line class="x" x1="352.31" y1="487.66" x2="352.31" y2="491.66"/><line class="x" x1="362.31" y1="487.66" x2="362.31" y2="491.66"/><line class="x" x1="372.31" y1="487.66" x2="372.31" y2="491.66"/><line class="x" x1="382.31" y1="487.66" x2="382.31" y2="491.66"/><line class="x" x1="392.31" y1="487.66" x2="392.31" y2="491.66"/><line class="x" x1="402.31" y1="487.66" x2="402.31" y2="491.66"/><line class="x" x1="412.31" y1="487.66" x2="412.31" y2="491.66"/><line class="x" x1="422.31" y1="487.66" x2="422.31" y2="491.66"/><line class="x" x1="432.31" y1="487.66" x2="432.31" y2="491.66"/><line class="x" x1="442.31" y1="487.66" x2="442.31" y2="491.66"/><line class="x" x1="452.31" y1="487.66" x2="452.31" y2="491.66"/><line class="x" x1="462.31" y1="487.66" x2="462.31" y2="491.66"/><line class="x" x1="472.31" y1="487.66" x2="472.31" y2="491.66"/><line class="x" x1="482.31" y1="487.66" x2="482.31" y2="491.66"/><line class="x" x1="492.31" y1="487.66" x2="492.31" y2="491.66"/><line class="x" x1="502.31" y1="487.66" x2="502.31" y2="491.66"/><line class="x" x1="512.31" y1="487.66" x2="512.31" y2="491.66"/><line class="x" x1="522.31" y1="487.66" x2="522.31" y2="491.66"/><line class="x" x1="532.31" y1="487.66" x2="532.31" y2="491.66"/><line class="x" x1="542.31" y1="487.66" x2="542.31" y2="491.66"/><line class="x" x1="552.31" y1="487.66" x2="552.31" y2="491.66"/><line class="x" x1="562.31" y1="487.66" x2="562.31" y2="491.66"/><line class="x" x1="572.31" y1="487.66" x2="572.31" y2="491.66"/><line class="x" x1="582.31" y1="487.66" x2="582.31" y2="491.66"/><line class="x" x1="592.31" y1="487.66" x2="592.31" y2="491.66"/><line class="x" x1="602.31" y1="487.66" x2="602.31" y2="491.66"/><line class="x" x1="612.31" y1="487.66" x2="612.31" y2="491.66"/><line class="x" x1="622.31" y1="487.66" x2="622.31" y2="491.66"/><line class="x" x1="632.31" y1="487.66" x2="632.31" y2="491.66"/><line class="x" x1="642.31" y1="487.66" x2="642.31" y2="491.66"/><line class="x" x1="652.31" y1="487.66" x2="652.31" y2="491.66"/><line class="x" x1="662.31" y1="487.66" x2="662.31" y2="491.66"/><line class="x" x1="672.31" y1="487.66" x2="672.31" y2="491.66"/><line class="x" x1="682.31" y1="487.66" x2="682.31" y2="491.66"/><line class="x" x1="692.31" y1="487.66" x2="692.31" y2="491.66"/><line class="x" x1="702.31" y1="487.66" x2="702.31" y2="491.66"/><line class="x" x1="712.31" y1="487.66" x2="712.31" y2="491.66"/><line class="x" x1="722.31" y1="487.66" x2="722.31" y2="491.66"/><line class="x" x1="732.31" y1="487.66" x2="732.31" y2="491.66"/><line class="x" x1="742.31" y1="487.66" x2="742.31" y2="491.66"/><line class="x" x1="752.31" y1="487.66" x2="752.31" y2="491.66"/><line class="x" x1="762.31" y1="487.66" x2="762.31" y2="491.66"/><line class="x" x1="772.31" y1="487.66" x2="772.31" y2="491.66"/><line class="x" x1="782.31" y1="487.66" x2="782.31" y2="491.66"/><line class="x" x1="792.31" y1="487.66" x2="792.31" y2="491.66"/><line class="x" x1="802.31" y1="487.66" x2="802.31" y2="491.66"/><line class="x" x1="812.31" y1="487.66" x2="812.31" y2="491.66"/><line class="x" x1="822.31" y1="487.66" x2="822.31" y2="491.66"/><line class="x" x1="832.31" y1="487.66" x2="832.31" y2="491.66"/><line class="x" x1="842.31" y1="487.66" x2="842.31" y2="491.66"/><line class="x" x1="852.31" y1="487.66" x2="852.31" y2="491.66"/><line class="x" x1="862.31" y1="487.66" x2="862.31" y2="491.66"/><line class="x" x1="872.31" y1="487.66" x2="872.31" y2="491.66"/><line class="x" x1="882.31" y1="487.66" x2="882.31" y2="491.66"/><line class="x" x1="892.31" y1="487.66" x2="892.31" y2="491.66"/><line class="x" x1="902.31" y1="487.66" x2="902.31" y2="491.66"/><line class="x" x1="912.31" y1="487.66" x2="912.31" y2="491.66"/><line class="x" x1="922.31" y1="487.66" x2="922.31" y2="491.66"/><line class="x" x1="932.31" y1="487.66" x2="932.31" y2="491.66"/><line class="x" x1="942.31" y1="487.66" x2="942.31" y2="491.66"/><line class="x" x1="952.31" y1="487.66" x2="952.31" y2="491.66"/><line class="x" x1="962.31" y1="487.66" x2="962.31" y2="491.66"/><line class="x" x1="972.31" y1="487.66" x2="972.31" y2="491.66"/><line class="x" x1="982.31" y1="487.66" x2="982.31" y2="491.66"/><line class="x" x1="992.31" y1="487.66" x2="992.31" y2="491.66"/><line class="x" x1="1002.31" y1="487.66" x2="1002.31" y2="491.66"/><line class="x" x1="1012.31" y1="487.66" x2="1012.31" y2="491.66"/><line class="x" x1="1022.31" y1="487.66" x2="1022.31" y2="491.66"/><line class="x" x1="1032.31" y1="487.66" x2="1032.31" y2="491.66"/><line class="x" x1="1042.31" y1="487.66" x2="1042.31" y2="491.66"/><line class="x" x1="1052.31" y1="487.66" x2="1052.31" y2="491.66"/><line class="x" x1="1062.31" y1="487.66" x2="1062.31" y2="491.66"/><line class="x" x1="1072.31" y1="487.66" x2="1072.31" y2="491.66"/><line class="x" x1="1082.31" y1="487.66" x2="1082.31" y2="491.66"/><line class="x" x1="1092.31" y1="487.66" x2="1092.31" y2="491.66"/><line class="x" x1="1102.31" y1="487.66" x2="1102.31" y2="491.66"/><line class="x" x1="1112.31" y1="487.66" x2="1112.31" y2="491.66"/><line class="x" x1="1122.31" y1="487.66" x2="1122.31" y2="491.66"/><line class="x" x1="1132.31" y1="487.66" x2="1132.31" y2="491.66"/><line class="x" x1="1142.31" y1="487.66" x2="1142.31" y2="491.66"/><line class="x" x1="1152.31" y1="487.66" x2="1152.31" y2="491.66"/><line class="x" x1="1162.31" y1="487.66" x2="1162.31" y2="491.66"/><line class="x" x1="1172.31" y1="487.66" x2="1172.31" y2="491.66"/><line class="x" x1="1182.31" y1="487.66" x2="1182.31" y2="491.66"/><line class="x" x1="1192.31" y1="487.66" x2="1192.31" y2="491.66"/><line class="x" x1="1202.31" y1="487.66" x2="1202.31" y2="491.66"/><line class="x" x1="1212.31" y1="487.66" x2="1212.31" y2="491.66"/><line class="x" x1="1222.31" y1="487.66" x2="1222.31" y2="491.66"/><line class="x" x1="1232.31" y1="487.66" x2="1232.31" y2="491.66"/><line class="x" x1="1242.31" y1="487.66" x2="1242.31" y2="491.66"/><line class="x" x1="1252.31" y1="487.66" x2="1252.31" y2="491.66"/><line class="x" x1="1262.31" y1="487.66" x2="1262.31" y2="491.66"/><line class="x" x1="22.31" y1="489.66" x2="1272.31" y2="489.71"/><line class="x" x1="844.9" y1="857.35" x2="844.9" y2="869.8"/><line class="x" x1="880.42" y1="857.35" x2="880.42" y2="869.8"/><line class="x" x1="915.94" y1="857.35" x2="915.94" y2="869.8"/><line class="x" x1="951.47" y1="857.34" x2="951.47" y2="869.8"/><line class="x" x1="986.99" y1="857.34" x2="986.99" y2="869.8"/><line class="x" x1="1022.51" y1="857.35" x2="1022.51" y2="869.8"/><line class="x" x1="820.12" y1="863.57" x2="1042.89" y2="863.57"/><polyline class="y" points="22.31 102.29 22.31 62.29 182.31 62.29 182.31 102.29 262.31 102.29 262.31 62.29 272.31 62.29 272.31 102.29 282.31 102.29 282.31 62.29 292.31 62.29 292.31 102.29 302.31 102.29 302.31 62.29 312.31 62.29 312.31 102.29 322.31 102.29 322.31 62.29 332.69 62.29 332.31 102.29 342.31 102.29 342.31 62.29 352.31 62.29 352.31 102.29 361.85 102.29 362.31 62.29 372.31 62.29 372.31 102.29 382.31 102.29 382.31 62.29 392.31 62.29 392.31 102.29 402.31 102.29 402.31 62.29 412.31 62.29 412.31 102.29 422.31 102.29 422.31 62.29 432.31 62.29 432.31 102.29 462.31 102.29 462.31 62.29 472.31 62.29 472.31 102.29 502.31 102.29 502.31 62.29 512.31 62.29 512.31 102.29 542.31 102.29 542.31 62.29 552.31 62.29 552.31 102.29 582.31 102.29 582.31 62.29 592.31 62.29 592.31 102.29 622.31 102.29 622.31 62.29 632.31 62.29 632.31 102.29 662.31 102.29 662.31 62.29 672.31 62.29 672.31 102.29 702.31 102.29 702.31 62.29 712.31 62.29 712.31 102.29 742.31 102.29 742.31 62.29 752.31 62.29 752.31 102.29 782.31 102.29 782.31 62.29 792.31 62.29 792.31 102.29 822.31 102.29 822.31 62.29 832.31 62.29 832.31 102.29 862.31 102.29 862.31 62.29 872.31 62.29 872.31 102.29 882.31 102.29 882.31 62.29 892.31 62.29 892.31 102.29 902.31 102.29 902.31 62.29 912.31 62.29 912.31 102.29 922.31 102.29 922.31 62.29 932.31 62.29 932.31 102.29 942.31 102.29 942.31 62.29 952.31 62.29 952.31 102.29 962.31 102.29 962.31 62.29 972.31 62.29 972.31 102.29 982.31 102.29 982.31 62.29 992.31 62.29 992.31 102.29 1002.31 102.29 1002.31 62.29 1012.31 62.29 1012.31 102.29 1022.31 102.29 1022.31 62.29 1032.31 62.29 1032.31 102.29 1062.31 102.29 1062.31 62.29 1072.31 62.29 1072.31 102.29 1102.31 102.29 1102.31 62.29 1112.31 62.29 1112.31 102.29 1142.31 102.29 1142.31 62.29 1152.31 62.29 1152.31 102.29 1182.31 102.29 1182.31 62.29 1192.31 62.29 1192.31 102.29 1222.31 102.29 1222.31 62.29 1232.31 62.29 1232.31 102.29 1272.31 102.29"/><polyline class="y" points="22.31 281.79 22.31 257.83 69.84 257.83 69.84 281.79 93.61 281.79 93.61 257.83 96.58 257.83 96.58 281.79 99.55 281.79 99.55 257.83 102.52 257.83 102.52 281.79 105.49 281.79 105.49 257.83 108.46 257.83 108.46 281.79 111.43 281.79 111.43 257.83 114.52 257.83 114.41 281.79 117.38 281.79 117.38 257.83 120.35 257.83 120.35 281.79 123.18 281.79 123.32 257.83 126.29 257.83 126.29 281.79 129.26 281.79 129.26 257.83 132.23 257.83 132.23 281.79 135.2 281.79 135.2 257.83 138.17 257.83 138.17 281.79 141.14 281.79 141.14 257.83 144.11 257.83 144.11 281.79 153.03 281.79 153.03 257.83 156 257.83 156 281.79 164.91 281.79 164.91 257.83 167.88 257.83 167.88 281.79 176.79 281.79 176.79 257.83 179.76 257.83 179.76 281.79 188.68 281.79 188.68 257.83 191.65 257.83 191.65 281.79 200.56 281.79 200.56 257.83 203.53 257.83 203.53 281.79 212.44 281.79 212.44 257.83 215.42 257.83 215.42 281.79 224.33 281.79 224.33 257.83 227.3 257.83 227.3 281.79 236.21 281.79 236.21 257.83 239.18 257.83 239.18 281.79 248.1 281.79 248.1 257.83 251.07 257.83 251.07 281.79 259.98 281.79 259.98 257.83 262.95 257.83 262.95 281.79 271.86 281.79 271.86 257.83 274.83 257.83 274.83 281.79 277.81 281.79 277.81 257.83 280.77 257.83 280.77 281.79 283.75 281.79 283.75 257.83 286.72 257.83 286.72 281.79 289.69 281.79 289.69 257.83 292.66 257.83 292.66 281.79 295.63 281.79 295.63 257.83 298.6 257.83 298.6 281.79 301.57 281.79 301.57 257.83 304.54 257.83 304.54 281.79 307.51 281.79 307.51 257.83 310.48 257.83 310.48 281.79 313.45 281.79 313.45 257.83 316.43 257.83 316.43 281.79 319.4 281.79 319.4 257.83 322.37 257.83 322.37 281.79 331.28 281.79 331.28 257.83 334.25 257.83 334.25 281.79 343.16 281.79 343.16 257.83 346.13 257.83 346.13 281.79 355.05 281.79 355.05 257.83 358.02 257.83 358.02 281.79 366.93 281.79 366.93 257.83 369.9 257.83 369.9 281.79 378.81 281.79 378.81 257.83 381.79 257.83 381.79 281.79 393.67 281.79 604.6 281.78 604.6 257.82 652.14 257.82 652.14 281.78 664.02 281.78 664.02 257.82 666.99 257.82 666.99 281.79 1186.9 281.77 1186.9 257.81 1234.43 257.81 1234.43 281.77 1246.32 281.77 1246.32 257.81 1249.29 257.81 1249.29 281.78 1272.31 281.79"/><polyline class="y" points="22.31 482.66 22.31 442.66 182.31 442.66 182.31 482.66 262.31 482.66 262.31 442.66 272.31 442.66 272.31 482.66 282.31 482.66 282.31 442.66 292.31 442.66 292.31 482.66 302.31 482.66 302.31 442.66 312.31 442.66 312.31 482.66 322.31 482.66 322.31 442.66 332.69 442.66 332.31 482.66 342.31 482.66 342.31 442.66 352.31 442.66 352.31 482.66 361.85 482.66 362.31 442.66 372.31 442.66 372.31 482.66 382.31 482.66 382.31 442.66 392.31 442.66 392.31 482.66 402.31 482.66 402.31 442.66 412.31 442.66 412.31 482.66 422.31 482.66 422.31 442.66 432.31 442.66 432.31 482.66 462.31 482.66 462.31 442.66 472.31 442.66 472.31 482.66 502.31 482.66 502.31 442.66 512.31 442.66 512.31 482.66 542.31 482.66 542.31 442.66 552.31 442.66 552.31 482.66 582.31 482.66 582.31 442.66 592.31 442.66 592.31 482.66 622.31 482.66 622.31 442.66 632.31 442.66 632.31 482.66 662.31 482.66 662.31 442.66 672.31 442.66 672.31 482.66 702.31 482.66 702.31 442.66 712.31 442.66 712.31 482.66 742.31 482.66 742.31 442.66 752.31 442.66 752.31 482.66 782.31 482.66 782.31 442.66 792.31 442.66 792.31 482.66 822.31 482.66 822.31 442.66 832.31 442.66 832.31 482.66 862.31 482.66 862.31 442.66 872.31 442.66 872.31 482.66 882.31 482.66 882.31 442.66 892.31 442.66 892.31 482.66 902.31 482.66 902.31 442.66 912.31 442.66 912.31 482.66 922.31 482.66 922.31 442.66 932.31 442.66 932.31 482.66 942.31 482.66 942.31 442.66 952.31 442.66 952.31 482.66 962.31 482.66 962.31 442.66 972.31 442.66 972.31 482.66 982.31 482.66 982.31 442.66 992.31 442.66 992.31 482.66 1002.31 482.66 1002.31 442.66 1012.31 442.66 1012.31 482.66 1022.31 482.66 1022.31 442.66 1032.31 442.66 1032.31 482.66 1062.31 482.66 1062.31 442.66 1072.31 442.66 1072.31 482.66 1102.31 482.66 1102.31 442.66 1112.31 442.66 1112.31 482.66 1142.31 482.66 1142.31 442.66 1152.31 442.66 1152.31 482.66 1182.31 482.66 1182.31 442.66 1192.31 442.66 1192.31 482.66 1222.31 482.66 1222.31 442.66 1232.31 442.66 1232.31 482.66 1272.31 482.66"/><polyline class="y" points="22.31 649.15 22.31 625.2 69.84 625.2 69.84 649.15 93.61 649.15 93.61 625.2 96.58 625.2 96.58 649.15 99.55 649.15 99.55 625.2 102.52 625.2 102.52 649.15 105.49 649.15 105.49 625.2 108.46 625.2 108.46 649.15 111.43 649.15 111.43 625.2 114.52 625.2 114.41 649.15 117.38 649.15 117.38 625.2 120.35 625.2 120.35 649.15 123.18 649.15 123.32 625.2 126.29 625.2 126.29 649.15 129.26 649.15 129.26 625.2 132.23 625.2 132.23 649.15 135.2 649.15 135.2 625.2 138.17 625.2 138.17 649.15 141.14 649.15 141.14 625.2 144.11 625.2 144.11 649.15 153.03 649.15 153.03 625.2 156 625.2 156 649.15 164.91 649.15 164.91 625.2 167.88 625.2 167.88 649.15 176.79 649.15 176.79 625.2 179.76 625.2 179.76 649.15 188.68 649.15 188.68 625.2 191.65 625.2 191.65 649.15 200.56 649.15 200.56 625.2 203.53 625.2 203.53 649.15 212.44 649.15 212.44 625.2 215.42 625.2 215.42 649.15 224.33 649.15 224.33 625.2 227.3 625.2 227.3 649.15 236.21 649.15 236.21 625.2 239.18 625.2 239.18 649.15 248.1 649.15 248.1 625.2 251.07 625.2 251.07 649.15 259.98 649.15 259.98 625.2 262.95 625.2 262.95 649.15 271.86 649.15 271.86 625.2 274.83 625.2 274.83 649.15 277.81 649.15 277.81 625.2 280.77 625.2 280.77 649.15 283.75 649.15 283.75 625.2 286.72 625.2 286.72 649.15 289.69 649.15 289.69 625.2 292.66 625.2 292.66 649.15 295.63 649.15 295.63 625.2 298.6 625.2 298.6 649.15 301.57 649.15 301.57 625.2 304.54 625.2 304.54 649.15 307.51 649.15 307.51 625.2 310.48 625.2 310.48 649.15 313.45 649.15 313.45 625.2 316.43 625.2 316.43 649.15 319.4 649.15 319.4 625.2 322.37 625.2 322.37 649.15 331.28 649.15 331.28 625.2 334.25 625.2 334.25 649.15 343.16 649.15 343.16 625.2 346.13 625.2 346.13 649.15 355.05 649.15 355.05 625.2 358.02 625.2 358.02 649.15 366.93 649.15 366.93 625.2 369.9 625.2 369.9 649.15 378.81 649.15 378.81 625.2 381.79 625.2 381.79 649.15 393.67 649.15 604.6 649.15 604.6 625.19 652.14 625.19 652.14 649.15 664.02 649.15 664.02 625.19 666.99 625.19 666.99 649.15 1186.9 649.14 1186.9 625.18 1234.43 625.18 1234.43 649.14 1246.32 649.14 1246.32 625.18 1249.29 625.18 1249.29 649.15 1272.31 649.15"/><line class="z" x1="25.84" y1="131.33" x2="178.78" y2="131.33"/><polygon points="22.31 131.33 27.28 133.37 26.1 131.33 27.28 129.3 22.31 131.33"/><polygon points="182.31 131.33 177.33 133.37 178.51 131.33 177.33 129.3 182.31 131.33"/><line class="z" x1="52.31" y1="100.43" x2="58.78" y2="100.43"/><polygon points="62.31 100.43 57.33 102.46 58.51 100.43 57.33 98.39 62.31 100.43"/><line class="z" x1="75.84" y1="100.43" x2="82.31" y2="100.43"/><polygon points="72.31 100.43 77.28 102.46 76.1 100.43 77.28 98.39 72.31 100.43"/><line class="z" x1="185.84" y1="131.33" x2="258.78" y2="131.33"/><polygon points="182.31 131.33 187.28 133.37 186.1 131.33 187.28 129.3 182.31 131.33"/><polygon points="262.31 131.33 257.33 133.37 258.51 131.33 257.33 129.3 262.31 131.33"/><line class="z" x1="25.84" y1="162.68" x2="258.78" y2="162.68"/><polygon points="22.31 162.68 27.28 164.71 26.1 162.68 27.28 160.65 22.31 162.68"/><polygon points="262.31 162.68 257.33 164.71 258.51 162.68 257.33 160.65 262.31 162.68"/><text class="aa" transform="translate(72.31 146.69)">9ms</text><text class="ab" transform="translate(77.31 128.33)">x16</text><text class="ab" transform="translate(127.94 159.31)">x24</text><text class="ab" transform="translate(210.23 128.33)">x8</text><text class="ac" transform="translate(46.53 93.1)">562.5µs</text><text class="aa" transform="translate(195.81 146.69)">4.5ms</text><text class="aa" transform="translate(62.31 178.22)"><tspan xml:space="preserve">Leading Mark  (13.5ms)</tspan></text><line class="z" x1="22.31" y1="111.29" x2="22.31" y2="112.29"/><line class="ad" x1="22.31" y1="114.27" x2="22.31" y2="255.82"/><line class="z" x1="22.31" y1="256.81" x2="22.31" y2="257.81"/><line class="z" x1="182.31" y1="111.29" x2="182.31" y2="112.29"/><line class="ae" x1="182.31" y1="114.41" x2="182.31" y2="134.55"/><line class="z" x1="182.31" y1="135.61" x2="182.31" y2="136.61"/><line class="z" x1="62.31" y1="99.43" x2="62.31" y2="100.43"/><line class="af" x1="62.31" y1="102.07" x2="62.31" y2="104.53"/><line class="z" x1="62.31" y1="105.35" x2="62.31" y2="106.35"/><line class="z" x1="72.31" y1="99.43" x2="72.31" y2="100.43"/><line class="af" x1="72.31" y1="102.07" x2="72.31" y2="104.53"/><line class="z" x1="72.31" y1="105.35" x2="72.31" y2="106.35"/><line class="z" x1="262.31" y1="111.29" x2="262.31" y2="112.29"/><line class="ag" x1="262.31" y1="114.23" x2="262.31" y2="171.43"/><line class="z" x1="262.31" y1="172.4" x2="262.31" y2="173.4"/><line class="z" x1="265.84" y1="162.68" x2="738.78" y2="162.68"/><polygon points="262.31 162.68 267.28 164.71 266.1 162.68 267.28 160.65 262.31 162.68"/><polygon points="742.31 162.68 737.33 164.71 738.51 162.68 737.33 160.65 742.31 162.68"/><line class="z" x1="1235.84" y1="162.68" x2="1272.31" y2="162.68"/><polygon points="1232.31 162.68 1237.28 164.71 1236.1 162.68 1237.28 160.65 1232.31 162.68"/><text class="ab" transform="translate(429.11 157.31)">x (8x2 + 8x4)</text><text class="aa" transform="translate(397.75 178.22)">Address frame (27ms)</text><line class="z" x1="745.84" y1="162.68" x2="1218.78" y2="162.68"/><polygon points="742.31 162.68 747.28 164.71 746.1 162.68 747.28 160.65 742.31 162.68"/><polygon points="1222.31 162.68 1217.33 164.71 1218.51 162.68 1217.33 160.65 1222.31 162.68"/><text class="ab" transform="translate(928.11 157.31)">x (8x2 + 8x4)</text><text class="aa" transform="translate(898.75 178.22)">Command frame (27ms)</text><line class="z" x1="25.84" y1="196.35" x2="1218.78" y2="196.35"/><polygon points="22.31 196.35 27.28 198.39 26.1 196.35 27.28 194.32 22.31 196.35"/><polygon points="1222.31 196.35 1217.33 198.39 1218.51 196.35 1217.33 194.32 1222.31 196.35"/><text class="ab" transform="translate(644.49 193.98)">x 120</text><text class="aa" transform="translate(600.13 212.89)">Signal frame (67.5ms)</text><text class="aa" transform="translate(1238.35 177.22)">End<tspan class="ah"><tspan x="-11.22" y="14.4">(0.56ms)</tspan></tspan></text><line class="z" x1="1222.31" y1="111.29" x2="1222.31" y2="112.29"/><line class="ai" x1="1222.31" y1="114.32" x2="1222.31" y2="198.59"/><line class="z" x1="1222.31" y1="199.6" x2="1222.31" y2="200.6"/><line class="z" x1="1222.31" y1="200.6" x2="1221.31" y2="200.67"/><line class="aj" x1="1219.31" y1="200.79" x2="380.81" y2="253.62"/><line class="z" x1="379.81" y1="253.68" x2="378.81" y2="253.75"/><line class="z" x1="22.31" y1="281.78" x2="22.31" y2="282.78"/><line class="ak" x1="22.31" y1="284.73" x2="22.31" y2="334.45"/><line class="z" x1="22.31" y1="335.43" x2="22.31" y2="336.43"/><line class="z" x1="26.39" y1="303.79" x2="375.28" y2="303.79"/><polygon points="22.86 303.79 27.83 305.82 26.65 303.79 27.83 301.76 22.86 303.79"/><polygon points="378.81 303.79 373.84 305.82 375.02 303.79 373.84 301.76 378.81 303.79"/><line class="z" x1="382.35" y1="303.79" x2="601.07" y2="303.79"/><polygon points="378.81 303.79 383.79 305.82 382.61 303.79 383.79 301.76 378.81 303.79"/><polygon points="604.6 303.79 599.63 305.82 600.81 303.79 599.63 301.76 604.6 303.79"/><line class="z" x1="608.13" y1="303.79" x2="660.49" y2="303.79"/><polygon points="604.6 303.79 609.58 305.82 608.4 303.79 609.58 301.76 604.6 303.79"/><polygon points="664.02 303.79 659.05 305.82 660.23 303.79 659.05 301.76 664.02 303.79"/><text class="aa" transform="translate(133.61 300.54)">67.5ms<tspan x="-16.34" y="16.8">Signal frame</tspan></text><line class="z" x1="26.39" y1="327.15" x2="601.07" y2="327.15"/><polygon points="22.86 327.15 27.83 329.18 26.65 327.15 27.83 325.12 22.86 327.15"/><polygon points="604.6 327.15 599.63 329.18 600.81 327.15 599.63 325.12 604.6 327.15"/><text class="aa" transform="translate(298.14 322.9)">108ms<tspan x="-31.91" y="16.8">Repetition period</tspan></text><text class="aa" transform="translate(852.55 322.9)">108ms<tspan x="-31.91" y="16.8">Repetition period</tspan></text><text class="aa" transform="translate(468.75 300.54)">40.5ms<tspan x="5.83" y="16.8">Gap1</tspan></text><line class="z" x1="667.55" y1="303.79" x2="1183.37" y2="303.79"/><polygon points="664.02 303.79 669 305.82 667.82 303.79 669 301.76 664.02 303.79"/><polygon points="1186.9 303.79 1181.92 305.82 1183.1 303.79 1181.92 301.76 1186.9 303.79"/><text class="aa" transform="translate(906.66 300.54)">108 - <tspan class="m" x="35.8" y="0">1</tspan><tspan x="42.55" y="0">1.25 = 96.75ms</tspan><tspan x="52.6" y="16.8">Gap2</tspan></text><text class="aa" transform="translate(607.1 300.54)"><tspan class="m">1</tspan><tspan x="6.75" y="0">1.25ms</tspan><tspan x="0" y="16.8">Repetition mark</tspan></text><text class="aa" transform="translate(1193.95 300.54)">Repetition<tspan x="15.97" y="16.8">mark</tspan></text><line class="z" x1="378.81" y1="281.78" x2="378.81" y2="282.78"/><line class="al" x1="378.81" y1="284.75" x2="378.81" y2="303.47"/><line class="z" x1="378.81" y1="304.45" x2="378.81" y2="305.45"/><line class="z" x1="378.81" y1="253.75" x2="378.81" y2="254.75"/><line class="z" x1="378.81" y1="256.81" x2="378.81" y2="257.81"/><line class="z" x1="604.6" y1="281.78" x2="604.6" y2="282.78"/><line class="am" x1="604.6" y1="284.82" x2="604.6" y2="332.76"/><line class="z" x1="604.6" y1="333.78" x2="604.6" y2="334.78"/><line class="z" x1="608.68" y1="327.15" x2="1183.37" y2="327.15"/><polygon points="605.15 327.15 610.13 329.18 608.95 327.15 610.13 325.12 605.15 327.15"/><polygon points="1186.9 327.15 1181.92 329.18 1183.1 327.15 1181.92 325.12 1186.9 327.15"/><line class="z" x1="1186.9" y1="281.78" x2="1186.9" y2="282.78"/><line class="an" x1="1186.9" y1="284.73" x2="1186.9" y2="334.45"/><line class="z" x1="1186.9" y1="335.43" x2="1186.9" y2="336.43"/><line class="z" x1="664.02" y1="281.78" x2="664.02" y2="282.78"/><line class="ao" x1="664.02" y1="284.77" x2="664.02" y2="303.72"/><line class="z" x1="664.02" y1="304.71" x2="664.02" y2="305.71"/><line class="z" x1="742.31" y1="111.29" x2="742.31" y2="112.29"/><line class="ag" x1="742.31" y1="114.23" x2="742.31" y2="171.43"/><line class="z" x1="742.31" y1="172.4" x2="742.31" y2="173.4"/><line class="z" x1="1232.31" y1="111.29" x2="1232.31" y2="112.29"/><line class="ag" x1="1232.31" y1="114.23" x2="1232.31" y2="171.43"/><line class="z" x1="1232.31" y1="172.4" x2="1232.31" y2="173.4"/><line class="z" x1="241.81" y1="865.53" x2="241.81" y2="866.53"/><line class="ap" x1="241.81" y1="868.4" x2="241.81" y2="886.16"/><line class="z" x1="241.81" y1="887.1" x2="241.81" y2="888.1"/><line class="z" x1="325.84" y1="131.33" x2="338.78" y2="131.33"/><polygon points="322.31 131.33 327.28 133.37 326.1 131.33 327.28 129.3 322.31 131.33"/><polygon points="342.31 131.33 337.33 133.37 338.51 131.33 337.33 129.3 342.31 131.33"/><text class="ab" transform="translate(324.89 126.33)">x2</text><text class="aa" transform="translate(307.91 149.28)">1.125ms</text><line class="z" x1="322.31" y1="111.29" x2="322.31" y2="112.29"/><line class="ae" x1="322.31" y1="114.41" x2="322.31" y2="134.55"/><line class="z" x1="322.31" y1="135.61" x2="322.31" y2="136.61"/><line class="z" x1="342.31" y1="111.29" x2="342.31" y2="112.29"/><line class="ae" x1="342.31" y1="114.41" x2="342.31" y2="134.55"/><line class="z" x1="342.31" y1="135.61" x2="342.31" y2="136.61"/><line class="z" x1="422.31" y1="58.77" x2="422.31" y2="59.77"/><line class="z" x1="422.31" y1="60.54" x2="422.31" y2="61.54"/><line class="z" x1="585.84" y1="131.33" x2="618.78" y2="131.33"/><polygon points="582.31 131.33 587.28 133.37 586.1 131.33 587.28 129.3 582.31 131.33"/><polygon points="622.31 131.33 617.33 133.37 618.51 131.33 617.33 129.3 622.31 131.33"/><line class="d" x1="885.81" y1="900.35" x2="946.07" y2="900.35"/><polygon class="aq" points="880.52 900.35 887.98 903.4 886.21 900.35 887.98 897.3 880.52 900.35"/><polygon class="aq" points="951.37 900.35 943.91 903.4 945.68 900.35 943.91 897.3 951.37 900.35"/><line class="z" x1="884.05" y1="885.07" x2="980.46" y2="885.07"/><polygon points="880.52 885.08 885.49 887.11 884.31 885.08 885.49 883.04 880.52 885.08"/><polygon points="983.99 885.08 979.02 887.11 980.2 885.08 979.02 883.04 983.99 885.08"/><line class="d" x1="885.81" y1="803.63" x2="1017.09" y2="803.63"/><polygon class="aq" points="880.52 803.63 887.98 806.68 886.21 803.63 887.98 800.59 880.52 803.63"/><polygon class="aq" points="1022.38 803.63 1014.92 806.68 1016.69 803.63 1014.92 800.59 1022.38 803.63"/><line class="z" x1="884.05" y1="819.58" x2="986.47" y2="819.58"/><polygon points="880.52 819.58 885.49 821.62 884.31 819.58 885.49 817.55 880.52 819.58"/><polygon points="990 819.58 985.03 821.62 986.21 819.58 985.03 817.55 990 819.58"/><text class="ab" transform="translate(595.97 127.33)">x4</text><text class="aa" transform="translate(576.42 149.28)">2.250ms</text><line class="z" x1="582.31" y1="111.29" x2="582.31" y2="112.29"/><line class="ae" x1="582.31" y1="114.41" x2="582.31" y2="134.55"/><line class="z" x1="582.31" y1="135.61" x2="582.31" y2="136.61"/><line class="z" x1="622.31" y1="111.29" x2="622.31" y2="112.29"/><line class="ae" x1="622.31" y1="114.41" x2="622.31" y2="134.55"/><line class="z" x1="622.31" y1="135.61" x2="622.31" y2="136.61"/><line class="z" x1="880.52" y1="796.65" x2="880.52" y2="797.65"/><line class="ar" x1="880.52" y1="799.65" x2="880.52" y2="906.47"/><line class="z" x1="880.52" y1="907.46" x2="880.52" y2="908.46"/><line class="z" x1="1022.41" y1="796.65" x2="1022.41" y2="797.65"/><line class="as" x1="1022.41" y1="799.78" x2="1022.41" y2="828.47"/><line class="z" x1="1022.41" y1="829.54" x2="1022.41" y2="830.54"/><line class="z" x1="951.37" y1="895.56" x2="951.37" y2="896.56"/><line class="at" x1="951.37" y1="898.76" x2="951.37" y2="906.45"/><line class="z" x1="951.37" y1="907.55" x2="951.37" y2="908.55"/><line class="z" x1="983.99" y1="857.35" x2="983.99" y2="858.35"/><line class="au" x1="983.99" y1="860.29" x2="983.99" y2="906.05"/><line class="z" x1="983.99" y1="907.02" x2="983.99" y2="908.02"/><line class="z" x1="990" y1="815.57" x2="990" y2="816.57"/><line class="av" x1="990" y1="818.5" x2="990" y2="867.83"/><line class="z" x1="990" y1="868.8" x2="990" y2="869.8"/><text/><line class="x" x1="31.81" y1="861.53" x2="31.81" y2="865.53"/><line class="x" x1="41.81" y1="861.52" x2="41.81" y2="865.52"/><line class="x" x1="51.81" y1="861.52" x2="51.81" y2="865.52"/><line class="x" x1="61.81" y1="861.53" x2="61.81" y2="865.53"/><line class="x" x1="71.81" y1="861.52" x2="71.81" y2="865.52"/><line class="x" x1="81.81" y1="861.52" x2="81.81" y2="865.52"/><line class="x" x1="91.81" y1="861.52" x2="91.81" y2="865.52"/><line class="x" x1="101.81" y1="861.52" x2="101.81" y2="865.52"/><line class="x" x1="111.81" y1="861.52" x2="111.81" y2="865.52"/><line class="x" x1="121.81" y1="861.52" x2="121.81" y2="865.52"/><line class="x" x1="131.81" y1="861.52" x2="131.81" y2="865.52"/><line class="x" x1="141.81" y1="861.52" x2="141.81" y2="865.52"/><line class="x" x1="151.81" y1="861.53" x2="151.81" y2="865.53"/><line class="x" x1="161.81" y1="861.52" x2="161.81" y2="865.52"/><line class="x" x1="171.81" y1="861.52" x2="171.81" y2="865.52"/><line class="x" x1="181.81" y1="861.53" x2="181.81" y2="865.53"/><line class="x" x1="191.81" y1="861.52" x2="191.81" y2="865.52"/><line class="x" x1="201.81" y1="861.52" x2="201.81" y2="865.52"/><line class="x" x1="211.81" y1="861.52" x2="211.81" y2="865.52"/><line class="x" x1="221.81" y1="861.52" x2="221.81" y2="865.52"/><line class="x" x1="231.81" y1="861.52" x2="231.81" y2="865.52"/><line class="x" x1="241.81" y1="861.52" x2="241.81" y2="865.52"/><line class="x" x1="251.81" y1="861.52" x2="251.81" y2="865.52"/><line class="x" x1="31.81" y1="863.52" x2="261.81" y2="863.52"/><polyline class="y" points="31.81 856.53 31.81 816.53 191.81 816.53 191.81 856.53 231.81 856.53 231.81 816.53 241.81 816.53 241.81 856.53 261.81 856.53"/><line class="z" x1="35.34" y1="885.56" x2="188.28" y2="885.56"/><polygon points="31.81 885.56 36.79 887.6 35.61 885.56 36.79 883.53 31.81 885.56"/><polygon points="191.81 885.56 186.84 887.6 188.02 885.56 186.84 883.53 191.81 885.56"/><line class="z" x1="61.81" y1="854.66" x2="68.28" y2="854.66"/><polygon points="71.81 854.66 66.84 856.69 68.02 854.66 66.84 852.63 71.81 854.66"/><line class="z" x1="85.34" y1="854.66" x2="91.81" y2="854.66"/><polygon points="81.81 854.66 86.79 856.69 85.61 854.66 86.79 852.63 81.81 854.66"/><line class="aw" x1="197.11" y1="885.56" x2="236.52" y2="885.56"/><polygon points="191.81 885.56 199.27 888.61 197.5 885.56 199.27 882.52 191.81 885.56"/><polygon points="241.81 885.56 234.35 888.61 236.12 885.56 234.35 882.52 241.81 885.56"/><text class="aa" transform="translate(90.81 898.92)">9ms</text><text class="ax" transform="translate(819.38 774.72)">Bit Marks<tspan class="n" x="66.67" y="0">’</tspan><tspan x="69.63" y="0" xml:space="preserve"> tolerances</tspan></text><text class="ay" transform="translate(22.86 32)">NEC Protocol</text><text class="ax" transform="translate(32.1 984.04)"><tspan class="az">T</tspan><tspan x="8" y="0">olerances summary</tspan></text><text class="ax" transform="translate(31.81 775.31)">Repetition Mark lenght</text><text class="ax" transform="translate(292.86 775.31)">Leading Mark &amp; Repetition Mark<tspan class="o" x="228.55" y="0">’</tspan><tspan x="231.82" y="0">s tolerances</tspan></text><text class="ab" transform="translate(92.81 882.56)">x16</text><text class="ab" transform="translate(207.19 881.61)">x5</text><text class="ac" transform="translate(56.03 847.33)">562.5µs</text><text class="u" transform="translate(170.07 902.9)">Repe</text><text class="u" transform="translate(198.76 902.9) scale(0.99 1)">tition Mark<tspan x="-20.49" y="16.8">(</tspan></text><text class="aa" transform="translate(182.43 919.7)">2.8125</text><text class="u" transform="translate(225.25 919.7) scale(0.99 1)">m</text><text class="u" transform="translate(235.15 919.7)">s)</text><line class="z" x1="31.81" y1="865.53" x2="31.81" y2="866.53"/><line class="ba" x1="31.81" y1="868.47" x2="31.81" y2="886.94"/><line class="z" x1="31.81" y1="887.91" x2="31.81" y2="888.91"/><line class="z" x1="191.81" y1="865.53" x2="191.81" y2="866.53"/><line class="ap" x1="191.81" y1="868.4" x2="191.81" y2="886.16"/><line class="z" x1="191.81" y1="887.1" x2="191.81" y2="888.1"/><line class="z" x1="71.81" y1="853.66" x2="71.81" y2="854.66"/><line class="af" x1="71.81" y1="856.3" x2="71.81" y2="858.76"/><line class="z" x1="71.81" y1="859.58" x2="71.81" y2="860.58"/><line class="z" x1="81.81" y1="853.66" x2="81.81" y2="854.66"/><line class="af" x1="81.81" y1="856.3" x2="81.81" y2="858.76"/><line class="z" x1="81.81" y1="859.58" x2="81.81" y2="860.58"/><line class="x" x1="302.24" y1="860.86" x2="302.24" y2="864.86"/><line class="x" x1="314.24" y1="860.86" x2="314.24" y2="864.86"/><line class="x" x1="312.86" y1="860.86" x2="312.86" y2="864.86"/><line class="x" x1="322.86" y1="860.86" x2="322.86" y2="864.86"/><line class="x" x1="332.86" y1="860.86" x2="332.86" y2="864.86"/><line class="x" x1="342.86" y1="860.86" x2="342.86" y2="864.86"/><line class="x" x1="352.86" y1="860.85" x2="352.86" y2="864.85"/><line class="x" x1="362.86" y1="860.85" x2="362.86" y2="864.85"/><line class="x" x1="372.86" y1="860.85" x2="372.86" y2="864.85"/><line class="x" x1="382.86" y1="860.85" x2="382.86" y2="864.85"/><line class="x" x1="392.86" y1="860.85" x2="392.86" y2="864.85"/><line class="x" x1="402.86" y1="860.85" x2="402.86" y2="864.85"/><line class="x" x1="412.86" y1="860.86" x2="412.86" y2="864.86"/><line class="x" x1="422.86" y1="860.86" x2="422.86" y2="864.86"/><line class="x" x1="432.86" y1="860.86" x2="432.86" y2="864.86"/><line class="x" x1="442.86" y1="860.86" x2="442.86" y2="864.86"/><line class="x" x1="452.86" y1="860.86" x2="452.86" y2="864.86"/><line class="x" x1="462.86" y1="860.86" x2="462.86" y2="864.86"/><line class="x" x1="472.86" y1="860.85" x2="472.86" y2="864.85"/><line class="x" x1="482.86" y1="860.85" x2="482.86" y2="864.85"/><line class="x" x1="492.86" y1="860.85" x2="492.86" y2="864.85"/><line class="x" x1="502.86" y1="860.85" x2="502.86" y2="864.85"/><line class="x" x1="512.86" y1="860.85" x2="512.86" y2="864.85"/><line class="x" x1="522.86" y1="860.85" x2="522.86" y2="864.85"/><line class="x" x1="532.86" y1="860.85" x2="532.86" y2="864.85"/><line class="x" x1="542.86" y1="860.85" x2="542.86" y2="864.85"/><line class="x" x1="552.86" y1="860.85" x2="552.86" y2="864.85"/><line class="x" x1="292.86" y1="862.85" x2="557.54" y2="862.85"/><polyline class="y" points="292.86 855.86 292.86 830.84 452.86 830.84 452.86 855.86 532.86 855.86 532.86 830.84 542.86 830.84 542.86 855.86 557.54 855.86"/><polyline class="y" points="292.86 933.33 292.86 908.26 452.86 908.26 452.86 933.33 492.86 933.33 492.86 908.26 502.86 908.26 502.86 933.33 557.54 933.33"/><text class="u" transform="translate(310.95 924.2)">Start Pulse before RM</text><text class="u" transform="translate(310.94 849.43)">Start Pulse before LM</text><text class="e" transform="translate(489.03 802.21)">LM</text><text class="f" transform="translate(468.23 880.99)">RM max</text><text class="w" transform="translate(507.75 895.6) scale(0.6 1)">Rt</text><text class="w" transform="translate(528.48 820.86) scale(0.6 1)">Lt</text><text class="f" transform="translate(470.95 821.41)">LM mim</text><line class="d" x1="458.15" y1="804.49" x2="537.56" y2="804.49"/><polygon class="aq" points="452.86 804.49 460.32 807.54 458.55 804.49 460.32 801.44 452.86 804.49"/><polygon class="aq" points="542.86 804.49 535.39 807.54 537.16 804.49 535.39 801.44 542.86 804.49"/><text class="e" transform="translate(469.04 896.58)">RM</text><line class="d" x1="458.12" y1="899.13" x2="497.56" y2="899.13"/><polygon class="aq" points="452.82 899.13 460.29 902.18 458.51 899.13 460.29 896.08 452.82 899.13"/><polygon class="aq" points="502.86 899.13 495.39 902.18 497.17 899.13 495.39 896.08 502.86 899.13"/><line class="z" x1="456.35" y1="882.94" x2="515.04" y2="882.94"/><polygon points="452.82 882.95 457.8 884.98 456.62 882.95 457.8 880.91 452.82 882.95"/><polygon points="518.57 882.95 513.6 884.98 514.78 882.95 513.6 880.91 518.57 882.95"/><line class="z" x1="506.39" y1="899.13" x2="515.04" y2="899.13"/><polygon points="502.86 899.13 507.83 901.16 506.65 899.13 507.83 897.1 502.86 899.13"/><polygon points="518.57 899.13 513.6 901.16 514.78 899.13 513.6 897.1 518.57 899.13"/><line class="z" x1="506.39" y1="915.32" x2="539.33" y2="915.32"/><polygon points="502.86 915.32 507.83 917.35 506.65 915.32 507.83 913.28 502.86 915.32"/><polygon points="542.86 915.32 537.88 917.35 539.06 915.32 537.88 913.28 542.86 915.32"/><line class="z" x1="523.08" y1="823.41" x2="539.33" y2="823.41"/><polygon points="519.55 823.41 524.52 825.45 523.34 823.41 524.52 821.38 519.55 823.41"/><polygon points="542.86 823.41 537.88 825.45 539.06 823.41 537.88 821.38 542.86 823.41"/><line class="z" x1="456.39" y1="823.41" x2="516.02" y2="823.41"/><polygon points="452.86 823.41 457.83 825.45 456.65 823.41 457.83 821.38 452.86 823.41"/><polygon points="519.55 823.41 514.57 825.45 515.75 823.41 514.57 821.38 519.55 823.41"/><line class="z" x1="452.86" y1="799.89" x2="452.86" y2="800.89"/><line class="bb" x1="452.86" y1="803.03" x2="452.86" y2="827.66"/><line class="z" x1="452.86" y1="828.73" x2="452.86" y2="829.73"/><line class="z" x1="542.86" y1="799.89" x2="542.86" y2="800.89"/><line class="bc" x1="542.86" y1="802.8" x2="542.86" y2="828.63"/><line class="z" x1="542.86" y1="829.59" x2="542.86" y2="830.59"/><line class="z" x1="542.86" y1="855.86" x2="542.86" y2="856.86"/><line class="bd" x1="542.86" y1="858.87" x2="542.86" y2="914.19"/><line class="z" x1="542.86" y1="915.2" x2="542.86" y2="916.2"/><line class="z" x1="518.57" y1="859.43" x2="518.57" y2="860.43"/><line class="be" x1="518.57" y1="862.35" x2="518.57" y2="899.8"/><line class="z" x1="518.57" y1="900.76" x2="518.57" y2="901.76"/><line class="z" x1="452.82" y1="855.86" x2="452.82" y2="856.86"/><line class="bf" x1="452.82" y1="858.87" x2="452.82" y2="906.25"/><line class="z" x1="452.82" y1="907.26" x2="452.82" y2="908.26"/><line class="z" x1="502.86" y1="896.58" x2="502.86" y2="897.58"/><line class="bg" x1="502.86" y1="899.51" x2="502.86" y2="906.29"/><line class="z" x1="502.86" y1="907.26" x2="502.86" y2="908.26"/><line class="z" x1="519.55" y1="820.03" x2="519.55" y2="821.03"/><line class="bh" x1="519.55" y1="822.97" x2="519.55" y2="864.7"/><line class="z" x1="519.55" y1="865.67" x2="519.55" y2="866.67"/><line class="z" x1="302.24" y1="855.86" x2="302.24" y2="856.86"/><line class="bi" x1="302.24" y1="858.91" x2="302.24" y2="907.22"/><line class="z" x1="302.24" y1="908.25" x2="302.24" y2="909.25"/><line class="z" x1="742.31" y1="58.77" x2="742.31" y2="59.77"/><line class="z" x1="742.31" y1="60.54" x2="742.31" y2="61.54"/><line class="z" x1="962.31" y1="58.77" x2="962.31" y2="59.77"/><line class="z" x1="962.31" y1="60.54" x2="962.31" y2="61.54"/><line class="z" x1="1222.31" y1="58.77" x2="1222.31" y2="59.77"/><line class="z" x1="1222.31" y1="60.54" x2="1222.31" y2="61.54"/><line class="z" x1="262.31" y1="58.77" x2="262.31" y2="59.77"/><line class="z" x1="262.31" y1="60.54" x2="262.31" y2="61.54"/><line class="z" x1="25.84" y1="511.7" x2="178.78" y2="511.7"/><polygon points="22.31 511.7 27.28 513.73 26.1 511.7 27.28 509.67 22.31 511.7"/><polygon points="182.31 511.7 177.33 513.73 178.51 511.7 177.33 509.67 182.31 511.7"/><line class="z" x1="52.31" y1="480.79" x2="58.78" y2="480.79"/><polygon points="62.31 480.8 57.33 482.83 58.51 480.8 57.33 478.76 62.31 480.8"/><line class="z" x1="75.84" y1="480.79" x2="82.31" y2="480.79"/><polygon points="72.31 480.8 77.28 482.83 76.1 480.8 77.28 478.76 72.31 480.8"/><line class="z" x1="185.84" y1="511.7" x2="268.78" y2="511.7"/><polygon points="182.31 511.7 187.28 513.73 186.1 511.7 187.28 509.67 182.31 511.7"/><polygon points="272.31 511.7 267.33 513.73 268.51 511.7 267.33 509.67 272.31 511.7"/><text class="aa" transform="translate(72.31 527.06)">9ms</text><text class="ab" transform="translate(77.31 508.7)">x16</text><text class="ab" transform="translate(215.51 508.7)">x9</text><text class="ac" transform="translate(46.53 473.47)">562.5µs</text><text class="aa" transform="translate(187.25 528.79)">Leading Mark<tspan x="0" y="16.8" xml:space="preserve">  (5.0625ms)</tspan></text><line class="z" x1="22.31" y1="478.66" x2="22.31" y2="479.66"/><line class="ad" x1="22.31" y1="481.64" x2="22.31" y2="623.19"/><line class="z" x1="22.31" y1="624.18" x2="22.31" y2="625.18"/><line class="z" x1="182.31" y1="491.66" x2="182.31" y2="492.66"/><line class="bj" x1="182.31" y1="494.7" x2="182.31" y2="558.96"/><line class="z" x1="182.31" y1="559.98" x2="182.31" y2="560.98"/><line class="z" x1="62.31" y1="479.79" x2="62.31" y2="480.79"/><line class="af" x1="62.31" y1="482.44" x2="62.31" y2="484.9"/><line class="z" x1="62.31" y1="485.72" x2="62.31" y2="486.72"/><line class="z" x1="72.31" y1="479.79" x2="72.31" y2="480.79"/><line class="af" x1="72.31" y1="482.44" x2="72.31" y2="484.9"/><line class="z" x1="72.31" y1="485.72" x2="72.31" y2="486.72"/><line class="z" x1="272.31" y1="491.66" x2="272.31" y2="492.66"/><line class="bk" x1="272.31" y1="494.58" x2="272.31" y2="512.76"/><line class="z" x1="272.31" y1="513.71" x2="272.31" y2="514.71"/><line class="z" x1="275.84" y1="511.7" x2="748.78" y2="511.7"/><polygon points="272.31 511.7 277.28 513.73 276.1 511.7 277.28 509.67 272.31 511.7"/><polygon points="752.31 511.7 747.33 513.73 748.51 511.7 747.33 509.67 752.31 511.7"/><text class="ab" transform="translate(429.11 506.9)">x (8x2 + 8x4)</text><text class="aa" transform="translate(397.75 527.81)">Address frame (27ms)</text><line class="z" x1="755.84" y1="511.7" x2="1228.78" y2="511.7"/><polygon points="752.31 511.7 757.28 513.73 756.1 511.7 757.28 509.67 752.31 511.7"/><polygon points="1232.31 511.7 1227.33 513.73 1228.51 511.7 1227.33 509.67 1232.31 511.7"/><text class="ab" transform="translate(928.11 505.92)">x (8x2 + 8x4)</text><text class="aa" transform="translate(898.75 526.84)">Command frame (27ms)</text><line class="z" x1="185.84" y1="556.12" x2="1228.78" y2="556.12"/><polygon points="182.31 556.12 187.28 558.15 186.1 556.12 187.28 554.08 182.31 556.12"/><polygon points="1232.31 556.12 1227.33 558.15 1228.51 556.12 1227.33 554.08 1232.31 556.12"/><text class="ab" transform="translate(644.49 553.74)">x 105</text><text class="aa" transform="translate(583.13 571.66)">Signal frame (59.0625ms)</text><line class="z" x1="1232.31" y1="491.66" x2="1232.31" y2="492.66"/><line class="bl" x1="1232.31" y1="494.65" x2="1232.31" y2="561.18"/><line class="z" x1="1232.31" y1="562.18" x2="1232.31" y2="563.18"/><line class="z" x1="1232.31" y1="563.18" x2="1231.31" y2="563.24"/><line class="bm" x1="1229.31" y1="563.37" x2="383.82" y2="617.76"/><line class="z" x1="382.82" y1="617.83" x2="381.82" y2="617.89"/><line class="z" x1="69.52" y1="649.15" x2="69.52" y2="650.15"/><line class="ak" x1="69.52" y1="652.1" x2="69.52" y2="701.82"/><line class="z" x1="69.52" y1="702.8" x2="69.52" y2="703.8"/><line class="z" x1="73.05" y1="671.16" x2="378.29" y2="671.16"/><polygon points="69.52 671.16 74.49 673.19 73.31 671.16 74.49 669.13 69.52 671.16"/><polygon points="381.82 671.16 376.85 673.19 378.03 671.16 376.85 669.13 381.82 671.16"/><line class="z" x1="385.35" y1="671.16" x2="648.52" y2="671.16"/><polygon points="381.82 671.16 386.8 673.19 385.62 671.16 386.8 669.13 381.82 671.16"/><polygon points="652.05 671.16 647.08 673.19 648.26 671.16 647.08 669.13 652.05 671.16"/><line class="z" x1="655.59" y1="620.59" x2="663.36" y2="620.59"/><polygon points="652.05 620.59 657.03 622.63 655.85 620.59 657.03 618.56 652.05 620.59"/><polygon points="666.89 620.59 661.91 622.63 663.1 620.59 661.91 618.56 666.89 620.59"/><text class="aa" transform="translate(173.94 667.91)">59.0625ms<tspan x="-4.66" y="16.8">Signal frame</tspan></text><line class="z" x1="73.05" y1="694.52" x2="648.55" y2="694.52"/><polygon points="69.52 694.52 74.49 696.55 73.31 694.52 74.49 692.49 69.52 694.52"/><polygon points="652.08 694.52 647.11 696.55 648.29 694.52 647.11 692.49 652.08 694.52"/><text class="aa" transform="translate(338.14 690.27)">108ms<tspan x="-31.91" y="16.8">Repetition period</tspan></text><text class="aa" transform="translate(852.55 690.27)">108ms<tspan x="-31.91" y="16.8">Repetition period</tspan></text><text class="aa" transform="translate(490.07 667.91)">48.9375ms<tspan x="17.51" y="16.8">Gap1</tspan></text><line class="z" x1="670.42" y1="671.16" x2="1231" y2="671.16"/><polygon points="666.89 671.16 671.86 673.19 670.68 671.16 671.86 669.13 666.89 671.16"/><polygon points="1234.53 671.16 1229.56 673.19 1230.74 671.16 1229.56 669.13 1234.53 671.16"/><text class="aa" transform="translate(892.57 667.91)">108 - 2.8125 = 105.1875ms<tspan x="68.69" y="16.8">Gap2</tspan></text><text class="aa" transform="translate(671.14 624.69)">Repetition mark</text><line class="z" x1="381.82" y1="649.15" x2="381.82" y2="650.15"/><line class="al" x1="381.82" y1="652.12" x2="381.82" y2="670.83"/><line class="z" x1="381.82" y1="671.82" x2="381.82" y2="672.82"/><line class="z" x1="381.82" y1="617.89" x2="381.82" y2="618.89"/><line class="bn" x1="381.82" y1="620.65" x2="381.82" y2="623.3"/><line class="z" x1="381.82" y1="624.18" x2="381.82" y2="625.18"/><line class="z" x1="652.05" y1="649.15" x2="652.05" y2="650.15"/><line class="am" x1="652.05" y1="652.19" x2="652.05" y2="700.13"/><line class="z" x1="652.05" y1="701.15" x2="652.05" y2="702.15"/><line class="z" x1="655.61" y1="694.52" x2="1231" y2="694.52"/><polygon points="652.08 694.52 657.06 696.55 655.88 694.52 657.06 692.49 652.08 694.52"/><polygon points="1234.53 694.52 1229.56 696.55 1230.74 694.52 1229.56 692.49 1234.53 694.52"/><line class="z" x1="1234.53" y1="649.15" x2="1234.53" y2="650.15"/><line class="an" x1="1234.53" y1="652.1" x2="1234.53" y2="701.82"/><line class="z" x1="1234.53" y1="702.8" x2="1234.53" y2="703.8"/><line class="z" x1="666.89" y1="649.15" x2="666.89" y2="650.15"/><line class="ao" x1="666.89" y1="652.14" x2="666.89" y2="671.09"/><line class="z" x1="666.89" y1="672.08" x2="666.89" y2="673.08"/><line class="z" x1="666.99" y1="619.6" x2="666.99" y2="620.6"/><line class="bo" x1="666.99" y1="621.8" x2="666.99" y2="623.59"/><line class="z" x1="666.99" y1="624.19" x2="666.99" y2="625.19"/><line class="z" x1="652.05" y1="619.6" x2="652.05" y2="620.6"/><line class="bo" x1="652.05" y1="621.8" x2="652.05" y2="623.59"/><line class="z" x1="652.05" y1="624.19" x2="652.05" y2="625.19"/><line class="z" x1="752.31" y1="491.66" x2="752.31" y2="492.66"/><line class="bp" x1="752.31" y1="494.67" x2="752.31" y2="513.76"/><line class="z" x1="752.31" y1="514.77" x2="752.31" y2="515.77"/><line class="z" x1="355.84" y1="436.33" x2="368.78" y2="436.33"/><polygon points="352.31 436.33 357.28 438.37 356.1 436.33 357.28 434.3 352.31 436.33"/><polygon points="372.31 436.33 367.33 438.37 368.51 436.33 367.33 434.3 372.31 436.33"/><text class="aa" transform="translate(339.88 431.15)">1.125ms</text><line class="z" x1="352.31" y1="434.6" x2="352.31" y2="435.6"/><line class="bq" x1="352.31" y1="437.62" x2="352.31" y2="440.65"/><line class="z" x1="352.31" y1="441.66" x2="352.31" y2="442.66"/><line class="z" x1="372.31" y1="434.6" x2="372.31" y2="435.6"/><line class="bq" x1="372.31" y1="437.62" x2="372.31" y2="440.65"/><line class="z" x1="372.31" y1="441.66" x2="372.31" y2="442.66"/><line class="z" x1="515.84" y1="436.33" x2="548.78" y2="436.33"/><polygon points="512.31 436.33 517.28 438.37 516.1 436.33 517.28 434.3 512.31 436.33"/><polygon points="552.31 436.33 547.33 438.37 548.51 436.33 547.33 434.3 552.31 436.33"/><text class="aa" transform="translate(505.55 431.15)">2.250ms</text><line class="z" x1="512.31" y1="434.6" x2="512.31" y2="435.6"/><line class="bq" x1="512.31" y1="437.62" x2="512.31" y2="440.65"/><line class="z" x1="512.31" y1="441.66" x2="512.31" y2="442.66"/><line class="z" x1="552.31" y1="434.6" x2="552.31" y2="435.6"/><line class="bq" x1="552.31" y1="437.62" x2="552.31" y2="440.65"/><line class="z" x1="552.31" y1="441.66" x2="552.31" y2="442.66"/><text/><text class="ay" transform="translate(22.86 414.37)">OnFall Mode</text><text class="br" transform="translate(510.14 912.43)">2.25ms</text></svg>